<?xml version="1.0" encoding="UTF-8" standalone="no"?><!DOCTYPE svg PUBLIC "-//W3C//DTD SVG 1.1//EN" "http://www.w3.org/Graphics/SVG/1.1/DTD/svg11.dtd"><svg width="100%" height="100%" viewBox="0 0 400 501" version="1.1" xmlns="http://www.w3.org/2000/svg" xmlns:xlink="http://www.w3.org/1999/xlink" xml:space="preserve" xmlns:serif="http://www.serif.com/" style="fill-rule:evenodd;clip-rule:evenodd;stroke-linejoin:round;stroke-miterlimit:2;"><rect id="zig-zag-tattoo-logo-primary" serif:id="zig-zag-tattoo/logo-primary" x="0" y="0.487" width="400" height="500" style="fill:none;"/><clipPath id="_clip1"><rect id="zig-zag-tattoo-logo-primary1" serif:id="zig-zag-tattoo/logo-primary" x="0" y="0.487" width="400" height="500"/></clipPath><g clip-path="url(#_clip1)"><rect x="-32.029" y="-47.143" width="476.172" height="641.88" style="fill:#00804a;"/><g><path id="square" d="M201.476,305.411l0.58,-8.729l-102.107,24.966l21.322,-70.655l-28.182,7.298l-4.823,9.888l20.941,-5.576l-21.299,70.584l113.568,-27.776Zm96.903,-29.188l-24.905,-6.654l6.345,55.32l32.273,8.079l-13.713,-56.745Zm-36.066,-2.237l-22.025,-5.275l-1.919,45.77l29.324,7.358l-5.38,-47.853Zm20.774,6.826l8.389,2.212l9.321,38.46l-13.371,-3.281l-4.339,-37.391Zm-23.103,-28.222l-57.456,-14.549l2.632,9.575l15.903,3.902l-2.572,57.929l8.26,2.038l2.556,-57.845l31.62,7.915l-0.943,-8.965Zm-11.855,26.566l6.662,1.651l3.296,29.94l-11.187,-2.733l1.229,-28.858Zm-113.445,-3.571l11.23,-2.835l-0,25.564l8.249,-2.005l-0.057,-53.869l-19.656,5.102l-17.377,57.81l9.355,-2.254l8.256,-27.513Zm60.038,-5.82l6.254,0.146l0.464,-8.159l-21.72,-0.863l0.047,8.29l6.663,0.32l-0.233,10.319l-12.171,2.889l-0.083,-36.761l7.846,-2.048l1.463,5.386l8.658,0.336l-4.386,-15.754l-21.765,5.636l0.073,53.791l28.355,-6.838l0.535,-16.69Zm-48.808,-5.616l-0,-10.984l-4.933,1.236l-3.578,11.918l8.511,-2.17Zm44.801,-43.378l0.561,-8.786l-76.789,19.934l14.451,-74.344l-26.282,13.214l-2.676,10.63l17.611,-8.854l-13.78,70.611l86.904,-22.405Zm97.471,-37.198l-42.979,-17.001l-0.091,8.879l15.858,6.329l9.036,61.067l8.73,2.303l-8.897,-59.863l20.42,8.11l-2.077,-9.824Zm-54.324,31.305l12.221,2.022l3.063,20.816l8.669,2.079l-7.342,-49.583l-22.644,-8.886l-3.477,50.043l8.13,2.138l1.38,-18.629Zm-34.392,-56.735l9.599,3.693l-4.535,64.516l8.286,2.074l4.264,-63.52l16.402,6.002l0.095,-8.884l-36.719,-13.727l2.608,9.846Zm-59.071,1.495l-10.889,56.196l8.979,-2.356l10.512,-54.931l-8.602,1.091Zm43.956,26.603l8.681,-0.198l0.55,-8.359l-22.185,0.428l-1.474,8.373l5.885,-0.094l-2.373,9.27l-11.873,3.066l7.196,-37.674l8.028,-2.713l2.375,7.918l8.435,-0.234l-5.208,-18.236l-20.729,6.807l-10.665,55.515l29.257,-7.555l4.1,-16.314Zm50.112,20.268l10.31,1.625l-1.771,-11.838l-7.603,-2.988l-0.936,13.201Z" style="fill:#ffe666;"/></g></g></svg>