<?xml version="1.0" encoding="UTF-8" standalone="no"?><!DOCTYPE svg PUBLIC "-//W3C//DTD SVG 1.1//EN" "http://www.w3.org/Graphics/SVG/1.1/DTD/svg11.dtd"><svg width="100%" height="100%" viewBox="0 0 400 501" version="1.1" xmlns="http://www.w3.org/2000/svg" xmlns:xlink="http://www.w3.org/1999/xlink" xml:space="preserve" xmlns:serif="http://www.serif.com/" style="fill-rule:evenodd;clip-rule:evenodd;stroke-linejoin:round;stroke-miterlimit:2;"><rect id="zig-zag-tattoo-logo-wide" serif:id="zig-zag-tattoo/logo-wide" x="0" y="0.487" width="400" height="500" style="fill:none;"/><clipPath id="_clip1"><rect id="zig-zag-tattoo-logo-wide1" serif:id="zig-zag-tattoo/logo-wide" x="0" y="0.487" width="400" height="500"/></clipPath><g clip-path="url(#_clip1)"><rect x="-32.029" y="-47.143" width="476.172" height="641.88" style="fill:#00804a;"/><g><g><path d="M108.911,279.374l2.51,-7.095l-54.247,14.172l10.981,-55.846l-19.97,11.681l-2.034,8.423l13.295,-7.879l-10.296,52.165l59.761,-15.621Z" style="fill:#ffe666;"/><path d="M76.537,234.276l-7.835,39.933l6.735,-1.682l7.461,-39.07l-6.361,0.819Z" style="fill:#ffe666;"/><path d="M111.318,251.755l6.969,-0.1l2.156,-6.233l-20.349,0.363l-1.146,6.202l6.154,-0.107l-0.437,6.627l-11.693,2.939l5.117,-27.072l6.201,-2.658l1.888,5.164l6.576,-0.176l-4.815,-13.318l-15.332,6.576l-7.577,39.947l25.547,-6.551l0.741,-11.603Z" style="fill:#ffe666;"/></g><g><path d="M353.849,266.117l-156.703,21.231l4.906,-29.459l-82.805,18.901l17.501,-51.794l-17.123,4.558l-2.244,-5.904l28.885,-7.463l-17.607,52.023l81.107,-18.474l-4.945,30.141l147.999,-20.133l1.029,6.373Z" style="fill:#ffe666;"/><path d="M170.97,249.425l0.136,-33.637l-16.672,4.356l-12.219,35.891l7.109,-1.605l4.249,-12.332l11.216,-2.467l-0.088,11.213l6.269,-1.419Zm-6.181,-16.168l0.004,-9.412l-5.51,1.457l-3.381,9.923l8.887,-1.968Z" style="fill:#ffe666;"/><path d="M204.376,228.738l4.752,-0.067l-1.741,-6.304l-15.309,0.49l-0.031,6.282l5.94,-0.251l-1.382,8.396l-10.5,2.395l0.207,-26.488l8.631,-2.829l1.059,3.514l6.393,-0.186l-3.179,-11.35l-19.211,6.362l-0.155,38.754l22.299,-5.011l2.227,-13.707Z" style="fill:#ffe666;"/></g><g><path d="M239.69,255.546l-1.968,10.802l-6.473,0.905l6.04,-34.342l17.048,-3.472l2.413,34.332l-6.241,0.816l-0.72,-9.937l-10.099,0.896Zm9.618,-7.113l-8.49,0.688l1.92,-10.96l5.796,-1.168l0.774,11.44Z" style="fill:#ffe666;"/><path d="M310.542,217.375l-17.368,3.94l2.763,37.086l22.558,-2.986l-7.953,-38.04Zm-10.725,8.838l5.957,-1.336l5.237,25.241l-9.292,1.182l-1.902,-25.087Z" style="fill:#ffe666;"/><path d="M327.292,254.292l22.202,-3.041l-12.304,-39.575l-18.401,1.897l8.503,40.719Zm14.019,-8.278l-9.036,1.252l-5.878,-28.135l6.343,-0.721l8.571,27.604Z" style="fill:#ffe666;"/><path d="M216.447,222.142l27.039,-6.208l-1.118,6.676l-12.955,2.956l-7.415,42.887l-6.496,0.912l7.285,-42.271l-4.622,1.057l-1.718,-6.009Z" style="fill:#ffe666;"/><path d="M252.848,214.059l43.086,-8.852l-0.249,6.384l-12.039,2.519l3.423,45.483l-6.306,0.805l-3.309,-44.927l-8.785,1.839l3.247,44.341l-6.306,0.805l-3.138,-43.842l-10.727,2.048l1.103,-6.603Z" style="fill:#ffe666;"/></g></g></g></svg>