<?xml version="1.0" encoding="UTF-8" standalone="no"?><!DOCTYPE svg PUBLIC "-//W3C//DTD SVG 1.1//EN" "http://www.w3.org/Graphics/SVG/1.1/DTD/svg11.dtd"><svg width="100%" height="100%" viewBox="0 0 400 501" version="1.1" xmlns="http://www.w3.org/2000/svg" xmlns:xlink="http://www.w3.org/1999/xlink" xml:space="preserve" xmlns:serif="http://www.serif.com/" style="fill-rule:evenodd;clip-rule:evenodd;stroke-linejoin:round;stroke-miterlimit:2;"><rect id="zig-zag-tattoo-logo-cover" serif:id="zig-zag-tattoo/logo-cover" x="0" y="0.487" width="400" height="500" style="fill:none;"/><clipPath id="_clip1"><rect id="zig-zag-tattoo-logo-cover1" serif:id="zig-zag-tattoo/logo-cover" x="0" y="0.487" width="400" height="500"/></clipPath><g clip-path="url(#_clip1)"><rect x="-32.029" y="-47.143" width="476.172" height="641.88" style="fill:#00804a;"/><g><path d="M199.142,202.732l10.929,4.155l-5.648,62.5l7.949,1.545l5.496,-61.093l14.667,5.681l-0,-8.685l-36.042,-13.684l2.649,9.581Z" style="fill:#ffe666;"/><path d="M634.472,368.518l-390.592,-157.301l0.024,8.652l15.541,5.975l8.454,55.924l8.268,1.653l-8.094,-54.204l368.756,148.975l-2.357,-9.674Z" style="fill:#ffe666;"/><path d="M233.055,257.026l11.89,1.833l2.98,19.01l8.209,1.662l-6.919,-45.441l-21.356,-8.21l-4.281,47.232l7.797,1.495l1.68,-17.581Zm0.701,-7.937l9.918,1.563l-1.61,-10.823l-7.172,-2.762l-1.136,12.022Z" style="fill:#ffe666;"/></g><g><path d="M248.738,289.665l-49.401,-9.67l-0.69,7.951l13.981,2.763l-11.097,272.497l7.955,1.614l11.049,-272.519l29.569,5.65l-1.366,-8.286Z" style="fill:#ffe666;"/><path d="M252.378,309.924l-20.982,-3.988l-1.506,36.308l29.506,5.753l-7.018,-38.073Zm-13.353,5.608l6.485,1.29l3.9,21.098l-11.253,-2.157l0.868,-20.231Z" style="fill:#ffe666;"/><path d="M284.587,296.697l-24.004,-4.939l10.707,58.555l28.549,5.515l-15.252,-59.131Zm-13.977,5.312l7.374,1.454l10.825,42.079l-10.55,-1.968l-7.649,-41.565Z" style="fill:#ffe666;"/></g><g><path d="M172.341,-58.02l-43.081,235.469l8.511,-2.266l42.827,-234.028l-8.257,0.825Z" style="fill:#ffe666;"/><path d="M186.591,182.387l1.219,-8.562l-73.021,19.172l12.113,-65.605l-32.89,11.092l-1.843,9.039l24.455,-8.283l-11.997,64.696l81.964,-21.549Z" style="fill:#ffe666;"/><path d="M183.495,148.579l5.541,-0.681l1.92,-8.377l-21.841,2.951l-1.467,8.166l7.645,-1.002l-1.16,7.849l-14.024,3.623l6.465,-35.471l7.285,-2.727l2.2,7.204l7.869,-1.011l-4.731,-16.792l-19.755,7.451l-9.389,52.181l31.179,-8.156l2.263,-15.208Z" style="fill:#ffe666;"/></g><g><path d="M193.194,265.014l0.676,-8.395l-94.467,23.869l21.081,-68.629l-332.104,83.627l-3.344,8.949l323.599,-81.185l-21.058,68.449l105.617,-26.685Z" style="fill:#ffe666;"/><path d="M190.454,229.884l5.86,-1.208l0.901,-8.183l-19.771,3.66l-0.152,8.156l4.87,-0.883l-1.013,8.351l-9.819,2.554l0.032,-35.693l7.633,-1.97l1.999,7.316l7.96,-1.475l-4.267,-15.602l-21.288,5.645l-0.041,51.961l25.114,-6.352l1.982,-16.277Z" style="fill:#ffe666;"/><path d="M132.527,238.318l11.485,-2.626l0,21.686l8.026,-1.929l-0.055,-51.923l-18.674,4.907l-17.131,56.051l8.989,-2.28l7.36,-23.886Zm11.485,-10.783l0,-13.694l-4.35,1.19l-4.514,14.548l8.864,-2.044Z" style="fill:#ffe666;"/></g></g></svg>