<?xml version="1.0" encoding="UTF-8" standalone="no"?><!DOCTYPE svg PUBLIC "-//W3C//DTD SVG 1.1//EN" "http://www.w3.org/Graphics/SVG/1.1/DTD/svg11.dtd"><svg width="100%" height="100%" viewBox="0 0 400 501" version="1.1" xmlns="http://www.w3.org/2000/svg" xmlns:xlink="http://www.w3.org/1999/xlink" xml:space="preserve" xmlns:serif="http://www.serif.com/" style="fill-rule:evenodd;clip-rule:evenodd;stroke-linejoin:round;stroke-miterlimit:2;"><rect id="zig-zag-tattoo-logo-tall" serif:id="zig-zag-tattoo/logo-tall" x="0" y="0.487" width="400" height="500" style="fill:none;"/><clipPath id="_clip1"><rect id="zig-zag-tattoo-logo-tall1" serif:id="zig-zag-tattoo/logo-tall" x="0" y="0.487" width="400" height="500"/></clipPath><g clip-path="url(#_clip1)"><rect x="-32.029" y="-47.143" width="476.172" height="641.88" style="fill:#00804a;"/><g><path d="M230.265,386.98l86.033,-21.302l2.016,7.424l-87.835,21.658l-0.214,-7.78Z" style="fill:#ffe666;"/><g><path d="M258.396,318.259l-15.707,2.166l-3.074,53.387l-7.62,1.901l3.205,-54.257l-55.504,7.542l1.419,-7.764l77.578,-10.584l-0.297,7.609Z" style="fill:#ffe666;"/><path d="M273.499,326.749l-20.699,3.022l-2.355,41.374l26.885,-6.696l-3.831,-37.7Zm-13.618,9.487l6.89,-0.965l2.476,23.493l-10.761,2.663l1.395,-25.191Z" style="fill:#ffe666;"/><path d="M287.708,361.856l25.729,-6.344l-9.37,-39.816l-20.883,2.053l4.524,44.107Zm16.708,-11.853l-10.141,2.538l-2.966,-28.065l6.932,-0.65l6.175,26.177Z" style="fill:#ffe666;"/></g><g><path d="M180.635,254.832l35.405,-8.125l-1.332,7.956l-15.44,3.523l-8.837,51.111l-7.741,1.087l8.682,-50.377l-14.321,3.273l3.584,-8.448Z" style="fill:#ffe666;"/><path d="M260.399,245.343l-15.707,3.108l5.02,52.74l-7.306,0.96l-4.994,-52.251l-11.529,2.441l1.314,-7.868l33.499,-6.738l-0.297,7.608Z" style="fill:#ffe666;"/><path d="M211.517,293.908l-2.346,12.874l-7.715,1.079l7.198,-40.927l19.272,-4.139l3.922,40.916l-7.438,0.972l-1.172,-11.842l-11.721,1.067Zm11.043,-8.581l-9.7,0.925l2.288,-13.062l6.176,-1.287l1.236,13.424Z" style="fill:#ffe666;"/></g><g><path d="M217.224,235.474l2.261,-8.128l-95.417,21.734l20.983,-61.999l-25.731,6.637l-4.367,8.853l18.755,-4.992l-20.857,61.726l104.373,-23.831Z" style="fill:#ffe666;"/><path d="M214.305,202.038l5.664,-0.079l-2.075,-7.513l-18.951,0.606l-0.037,7.382l7.785,-0.216l-1.648,10.005l-12.513,2.854l0.247,-31.567l10.286,-3.372l1.263,4.188l7.618,-0.222l-3.789,-13.526l-22.894,7.581l-0.185,46.186l26.575,-5.971l2.654,-16.336Z" style="fill:#ffe666;"/><path d="M174.492,226.687l0.163,-40.088l-19.87,5.191l-14.561,42.774l8.472,-1.913l5.063,-14.697l13.367,-2.94l-0.104,13.363l7.47,-1.69Zm-7.366,-19.269l0.005,-11.218l-6.566,1.737l-4.03,11.826l10.591,-2.345Z" style="fill:#ffe666;"/></g><g><path d="M144.657,176.029l1.135,-7.971l-50.969,13.316l13.087,-66.556l-23.8,13.921l-2.424,10.039l15.844,-9.391l-12.27,62.17l59.397,-15.528Z" style="fill:#ffe666;"/><path d="M117.899,119.194l-9.337,47.591l8.026,-2.006l8.892,-46.562l-7.581,0.977Z" style="fill:#ffe666;"/><path d="M159.35,140.024l6.744,-0.119l-1.97,-7.342l-17.215,0.346l-1.366,7.392l6.399,-0.127l-0.521,7.898l-13.935,3.502l6.099,-32.263l7.389,-3.168l2.25,6.153l7.838,-0.209l-5.739,-15.873l-18.272,7.838l-9.03,47.607l30.446,-7.807l0.883,-13.828Z" style="fill:#ffe666;"/></g></g></g></svg>