<?xml version="1.0" encoding="UTF-8" standalone="no"?><!DOCTYPE svg PUBLIC "-//W3C//DTD SVG 1.1//EN" "http://www.w3.org/Graphics/SVG/1.1/DTD/svg11.dtd"><svg width="100%" height="100%" viewBox="0 0 400 501" version="1.1" xmlns="http://www.w3.org/2000/svg" xmlns:xlink="http://www.w3.org/1999/xlink" xml:space="preserve" xmlns:serif="http://www.serif.com/" style="fill-rule:evenodd;clip-rule:evenodd;stroke-linejoin:round;stroke-miterlimit:2;"><rect id="zig-zag-tattoo-process-3" serif:id="zig-zag-tattoo/process-3" x="0" y="0.487" width="400" height="500" style="fill:none;"/><clipPath id="_clip1"><rect id="zig-zag-tattoo-process-31" serif:id="zig-zag-tattoo/process-3" x="0" y="0.487" width="400" height="500"/></clipPath><g clip-path="url(#_clip1)"><rect x="-15.5" y="-13.5" width="430" height="537.05" style="fill:#f5f5f5;"/><path d="M243.25,191.297l-3.858,17.811c-0.416,1.916 -1.604,3.576 -3.284,4.586c-1.68,1.011 -3.704,1.282 -5.591,0.75l-44.862,-12.641l1.664,-5.906l44.862,12.642c0.259,0.072 0.535,0.035 0.765,-0.103c0.23,-0.138 0.392,-0.365 0.449,-0.627l2.809,-12.969c-0.128,-0.018 -0.256,-0.039 -0.384,-0.065l-13.268,-2.614c-3.759,-0.74 -6.206,-4.388 -5.466,-8.148l4.905,-24.892c0.74,-3.759 4.388,-6.206 8.148,-5.465l14.374,2.832l0.661,-3.052l5.997,1.299l-4.319,19.935l-2.884,14.64c-0.141,0.714 -0.386,1.381 -0.718,1.987Zm-2.407,-17.87l2.164,-10.982l-14.054,-2.769c-0.435,-0.086 -0.857,0.197 -0.942,0.631l-4.904,24.892c-0.086,0.435 0.197,0.857 0.631,0.942l13.268,2.614c0.189,0.038 0.376,0.005 0.534,-0.08l3.303,-15.248Zm-20.627,-52.414c-0.223,0.21 -0.462,0.407 -0.717,0.59l-11.715,8.411c-3.112,2.235 -7.447,1.523 -9.682,-1.59l-16.49,-22.968c-2.235,-3.113 -1.523,-7.448 1.59,-9.682l12.351,-8.867l-2.222,-3.072l4.972,-3.595l4.027,5.567l0.012,0.002l1.471,2.049l31.106,43.017c0.075,-0.512 0.191,-1.019 0.348,-1.518l17.39,-55.121l-22.583,-10.196l2.525,-5.593l21.917,9.896l2.873,-9.105l5.851,1.846l-3.092,9.801l9.348,4.221l-2.524,5.592l-8.683,-3.92l-17.17,54.425c-0.286,0.907 -0.199,1.891 0.242,2.734c0.441,0.843 1.199,1.475 2.108,1.757l26.168,8.13l-1.82,5.859l-26.169,-8.129c-2.467,-0.766 -4.527,-2.484 -5.724,-4.773l-0.007,-0.014c-0.44,1.317 -1.303,2.463 -2.467,3.25l-10.755,7.266l-3.435,-5.084l10.754,-7.266c0.048,-0.032 0.08,-0.082 0.09,-0.138c0.01,-0.056 -0.004,-0.113 -0.037,-0.159l-9.851,-13.623Zm-21.069,-29.133l-12.367,8.878c-0.36,0.258 -0.442,0.759 -0.184,1.119l16.491,22.969c0.258,0.36 0.759,0.442 1.119,0.184l11.715,-8.411c0.36,-0.258 0.442,-0.759 0.183,-1.119l-16.957,-23.62Zm-0.19,97.669c-0.975,0.023 -1.971,-0.116 -2.951,-0.435l-12.002,-3.909c-4.65,-1.515 -7.192,-6.512 -5.678,-11.162l3.43,-10.529c1.514,-4.65 6.512,-7.192 11.162,-5.678l15.01,4.889l4.365,-13.051l-8.891,-2.896l-3.659,6.938l-5.427,-2.863l4.865,-9.224l3.664,-1.485l12.32,4.012c1.298,0.423 2.374,1.347 2.988,2.567c0.614,1.219 0.716,2.633 0.283,3.928l-14.061,42.043l-5.819,-1.946l0.401,-1.199Zm2.377,-8.012l4.271,-13.115l-14.588,-4.752c-1.428,-0.465 -2.962,0.316 -3.427,1.744l-3.43,10.529c-0.465,1.428 0.316,2.963 1.744,3.428l12.002,3.909c1.428,0.465 2.963,-0.316 3.428,-1.743Zm81.002,-45.272c-1.398,0.434 -2.921,0.422 -4.347,-0.076l-12.027,-4.202c-3.703,-1.293 -6.425,-4.479 -7.124,-8.338l-1.709,-9.422c-0.44,-2.429 0.443,-4.909 2.32,-6.513c1.877,-1.603 4.464,-2.089 6.795,-1.275l11.72,4.095l-2.177,-12.808l-8.115,-2.561l-1.987,6.438l-5.863,-1.809l2.898,-9.388l3.854,-2.021l11.65,3.676c1.832,0.578 3.187,2.132 3.509,4.026l7.376,43.411l-6.049,1.028l-0.724,-4.261Zm-1.27,-6.769l-2.203,-12.148l-14.643,-5.116c-0.269,-0.094 -0.568,-0.038 -0.785,0.147c-0.217,0.185 -0.319,0.472 -0.268,0.753l1.708,9.422c0.306,1.685 1.494,3.076 3.111,3.641l12.027,4.202c0.269,0.094 0.568,0.038 0.785,-0.148c0.217,-0.185 0.319,-0.472 0.268,-0.753Zm6.544,-40.507l-13.035,-5.604l2.424,-5.637l9.153,3.935l-2.216,-11.098l6.017,-1.201l3.043,15.241l17.59,7.562l-2.423,5.637l-13.708,-5.893l9.512,47.641l17.435,-4.72l1.603,5.922l-17.461,4.728c-1.633,0.442 -3.376,0.187 -4.815,-0.703c-1.438,-0.891 -2.442,-2.339 -2.773,-3.998l-10.346,-51.812Zm-0.485,76.639l-14.586,4.055l-1.644,-5.912l15.199,-4.225l-1.738,-10.256l6.05,-1.025l1.631,9.629l33.202,-9.229l1.644,5.911l-33.815,9.4l7.797,46.008c0.152,0.895 0.641,1.698 1.367,2.244l17.931,13.481l-3.687,4.904l-17.932,-13.481c-1.98,-1.489 -3.314,-3.68 -3.728,-6.123l-7.691,-45.381Zm75.08,17.974c0.503,2.01 0.187,4.137 -0.878,5.913c-1.065,1.776 -2.793,3.057 -4.802,3.56l-8.088,2.024c-2.01,0.502 -4.137,0.186 -5.913,-0.879c-1.777,-1.065 -3.057,-2.793 -3.56,-4.802l-5.848,-23.373c-0.503,-2.01 -0.187,-4.136 0.878,-5.913c1.066,-1.776 2.793,-3.057 4.803,-3.559l8.088,-2.024c2.009,-0.503 4.136,-0.187 5.912,0.878c1.777,1.066 3.057,2.793 3.56,4.802l5.848,23.373Zm-5.952,1.49l-5.848,-23.373c-0.108,-0.431 -0.383,-0.801 -0.763,-1.03c-0.381,-0.228 -0.837,-0.296 -1.268,-0.188l-8.088,2.024c-0.431,0.108 -0.801,0.382 -1.03,0.763c-0.228,0.381 -0.296,0.837 -0.188,1.267l5.849,23.373c0.107,0.431 0.382,0.801 0.763,1.03c0.38,0.228 0.836,0.296 1.267,0.188l8.088,-2.024c0.431,-0.107 0.801,-0.382 1.03,-0.763c0.228,-0.381 0.296,-0.837 0.188,-1.267Zm-218.219,-111.882l2.752,-5.484l23.644,11.869l1.199,4.408l-32.105,49.617l49.436,-13.225l1.586,5.927l-57.134,15.285l-3.368,-4.631l34.575,-53.433l-20.585,-10.333Zm4.169,80.648l-1.855,-5.849l45.637,-14.473l3.446,4.675l-33.854,48.706l24.552,6.984l-1.679,5.901l-28.683,-8.158l-1.679,-4.702l31.162,-44.833l-37.047,11.749Zm32.028,-72.825l6.001,1.277l-7.246,34.054l-6.002,-1.277l7.247,-34.054Zm11.838,-23.795c5.992,2.651 8.703,9.669 6.051,15.661c-2.651,5.991 -9.669,8.703 -15.661,6.051c-5.991,-2.652 -8.703,-9.67 -6.051,-15.661c2.652,-5.992 9.67,-8.703 15.661,-6.051Zm148.659,141.229c0.423,2.028 0.023,4.14 -1.112,5.873c-1.135,1.733 -2.911,2.945 -4.939,3.368l-10.905,2.274c-2.028,0.423 -4.141,0.024 -5.874,-1.111c-1.733,-1.135 -2.944,-2.912 -3.367,-4.939l-6.045,-28.978c-0.423,-2.028 -0.023,-4.141 1.112,-5.874c1.135,-1.732 2.911,-2.944 4.939,-3.367l10.905,-2.275c2.028,-0.423 4.141,-0.023 5.873,1.112c1.733,1.135 2.945,2.911 3.368,4.939l6.045,28.978Zm-6.007,1.253l-6.045,-28.978c-0.091,-0.435 -0.35,-0.815 -0.722,-1.059c-0.371,-0.243 -0.824,-0.329 -1.259,-0.238l-10.905,2.275c-0.435,0.091 -0.816,0.35 -1.059,0.722c-0.243,0.371 -0.329,0.824 -0.238,1.259l6.045,28.978c0.09,0.434 0.35,0.815 0.722,1.059c0.371,0.243 0.824,0.329 1.259,0.238l10.905,-2.275c0.435,-0.091 0.815,-0.35 1.059,-0.722c0.243,-0.371 0.329,-0.824 0.238,-1.259Z"/><path d="M113.168,424.829l79.27,-87.711c0.208,-0.23 0.258,-0.561 0.129,-0.842c-0.13,-0.282 -0.415,-0.459 -0.725,-0.45l-60.052,1.699l17.231,-19.402l112.489,-22.154l-66.367,84.138c-0.227,0.287 -0.288,0.671 -0.161,1.014c0.126,0.343 0.422,0.596 0.78,0.667l84.975,16.96c0.461,0.092 0.932,-0.102 1.194,-0.492l35.609,-52.961l9.559,16.959l-28.049,65.624c-0.186,0.436 -0.619,0.716 -1.094,0.706l-184.788,-3.755Zm42.796,-97.423l59.793,-3.481c0.095,-0.006 0.184,0.045 0.227,0.13c0.043,0.085 0.031,0.187 -0.029,0.26l-63.952,76.923c-0.056,0.068 -0.07,0.161 -0.037,0.242c0.033,0.082 0.108,0.139 0.196,0.148l135.196,14.521c0.475,0.051 0.933,-0.193 1.155,-0.617l21.069,-40.168l-23.973,36.196c-0.25,0.378 -0.698,0.576 -1.146,0.508l-116.424,-17.785c-0.084,-0.013 -0.154,-0.069 -0.186,-0.148c-0.031,-0.079 -0.018,-0.169 0.035,-0.235l61.265,-78.028c0.06,-0.077 0.067,-0.184 0.017,-0.268c-0.05,-0.085 -0.146,-0.13 -0.244,-0.115l-72.962,11.917Zm-114.79,55.686l36.577,-32.105l-17.432,-0l19.3,-19.301l59.923,-9.965l-47.983,52.075c-0.146,0.158 -0.219,0.371 -0.2,0.586c0.019,0.215 0.127,0.412 0.298,0.543l35.14,26.889l-12.345,14.487l-73.068,-31.859c-0.254,-0.111 -0.433,-0.344 -0.476,-0.617c-0.043,-0.274 0.058,-0.551 0.266,-0.733Zm70.701,-48.342c0.047,-0.051 0.055,-0.127 0.02,-0.187c-0.035,-0.06 -0.104,-0.09 -0.172,-0.075l-28.36,6.297l19.468,-1.268c0.066,-0.004 0.127,0.033 0.155,0.093c0.027,0.06 0.014,0.131 -0.033,0.178l-40.299,40.299c-0.036,0.037 -0.053,0.088 -0.044,0.139c0.008,0.051 0.04,0.094 0.087,0.117l32.341,15.852l-23.364,-16.952c-0.036,-0.026 -0.06,-0.067 -0.065,-0.112c-0.004,-0.045 0.01,-0.09 0.041,-0.123l40.225,-44.258Zm70.32,6.821l-52.028,54.893l-32.228,-22.361c-0.126,-0.088 -0.206,-0.227 -0.22,-0.379c-0.014,-0.153 0.041,-0.304 0.15,-0.413l7.278,-7.278l24.071,12.71l4.993,-4.994l-12.06,-5.518l30.929,-27.165l28.775,-0.274c0.186,-0.002 0.354,0.107 0.428,0.277c0.074,0.17 0.039,0.368 -0.088,0.502Zm-21.496,8.718l-6.651,-0.545l-15.207,13.029l5.116,2.151l16.742,-14.635Zm-14.091,-9.223l-28.157,25.821l-9.621,-4.4l20.907,-20.906l16.871,-0.515Zm131.244,50.643l-73.407,-14.191c-0.27,-0.053 -0.49,-0.248 -0.574,-0.511c-0.083,-0.262 -0.016,-0.549 0.174,-0.748l10.752,-11.217l55.42,12.094c0.343,0.074 0.7,-0.03 0.948,-0.278l7.645,-7.645c0.194,-0.194 0.302,-0.457 0.302,-0.731c-0.001,-0.273 -0.11,-0.536 -0.305,-0.729l-10.033,-9.952c-0.355,-0.352 -0.397,-0.911 -0.1,-1.312l16.953,-22.881l26.864,10.109l-33.466,47.519c-0.264,0.375 -0.723,0.56 -1.173,0.473Zm12.237,-44.265l-6.192,8.183l4.005,4.494l7.827,-10.813l-5.64,-1.864Zm-24.429,24.435l-48.565,-11.468l16.448,-20.722l19.64,-1.602c1.026,-0.083 1.97,-0.592 2.604,-1.403l8.637,-11.047l-4.416,-3.706c-0.031,-0.025 -0.07,-0.037 -0.11,-0.031c-0.039,0.005 -0.074,0.027 -0.096,0.06l-6.866,10.043c-0.687,1.004 -1.826,1.605 -3.043,1.605l-11.023,0l20.693,-26.436l22.984,22.014l-20.168,28.152c-0.288,0.402 -0.241,0.955 0.113,1.302l7.885,7.744c0.196,0.192 0.307,0.455 0.308,0.73c0.001,0.275 -0.107,0.539 -0.302,0.733l-3.758,3.758c-0.252,0.252 -0.617,0.356 -0.965,0.274Zm-15.631,-23.444l-10.724,0l-3.638,5.959l9.935,1.947l4.427,-7.906Z"/></g></svg>