<?xml version="1.0" encoding="UTF-8" standalone="no"?><!DOCTYPE svg PUBLIC "-//W3C//DTD SVG 1.1//EN" "http://www.w3.org/Graphics/SVG/1.1/DTD/svg11.dtd"><svg width="100%" height="100%" viewBox="0 0 400 501" version="1.1" xmlns="http://www.w3.org/2000/svg" xmlns:xlink="http://www.w3.org/1999/xlink" xml:space="preserve" xmlns:serif="http://www.serif.com/" style="fill-rule:evenodd;clip-rule:evenodd;stroke-linejoin:round;stroke-miterlimit:2;"><rect id="zig-zag-tattoo-process-2" serif:id="zig-zag-tattoo/process-2" x="0" y="0.487" width="400" height="500" style="fill:none;"/><clipPath id="_clip1"><rect id="zig-zag-tattoo-process-21" serif:id="zig-zag-tattoo/process-2" x="0" y="0.487" width="400" height="500"/></clipPath><g clip-path="url(#_clip1)"><rect x="-15.5" y="-13.5" width="430" height="537.05" style="fill:#f5f5f5;"/><path d="M335.005,114.339l-25.626,-0l-0,-59.795l42.71,0l-0,93.963l-42.71,-0l-0,-25.626l17.084,-0l-0,8.542l8.542,-0l-0,-17.084Zm-0,-42.711l-8.542,0l-0,25.627l8.542,-0l-0,-25.627Zm3.015,133.156l-21.104,0l-0,-49.242l35.173,-0l-0,77.381l-35.173,-0l-0,-21.104l14.069,-0l-0,7.034l7.035,0l-0,-14.069Zm-0,-35.173l-7.035,-0l-0,21.104l7.035,-0l-0,-21.104Zm-77.788,94.116l0,19.809l-7.923,-0l-0,-43.58l19.809,0l-0,43.58l-7.924,-0l0,-19.809l-3.962,0Zm3.962,-7.923l0,-7.924c0,-0 -3.962,-0 -3.962,0l0,7.924l3.962,-0Zm24.583,-51.02l0,28.139l-14.069,-0l-0,-77.381l35.173,-0l0,77.381l-14.069,-0l-0,-28.139l-7.035,0Zm7.035,-14.069l-0,-21.104l-7.035,-0l0,21.104l7.035,-0Zm31.77,49.241l0,43.58l-19.809,-0l0,-43.58l19.809,0Zm-11.885,7.924l-0,27.732l3.962,0l-0,-27.732l-3.962,-0Zm-27.732,-7.924l-0,43.58l-7.924,-0l0,-35.656l-3.962,-0l0,-7.924l11.886,0Zm-39.618,0l0,7.924l-3.962,-0l0,35.656l-7.923,-0l-0,-35.656l-3.962,-0l0,-7.924l15.847,0Zm55.465,0l-0,7.924l-3.962,-0l-0,35.656l-7.924,-0l0,-35.656l0,-7.924l11.886,0Zm47.541,0l-0,43.58l-19.809,-0l-0,-43.58l19.809,0Zm-11.886,7.924l0,27.732l3.962,0l0,-27.732l-3.962,-0Zm-89.883,-159.167l-17.084,-0l0,-34.169l42.71,0l0,48.867c0,0 -25.626,8.542 -25.626,8.542l0,19.47c0,-0 8.542,-0 8.542,-0l0,-17.084l17.084,-0l0,34.168l-42.71,-0l0,-48.867c0,-0 25.626,-8.542 25.626,-8.542l0,-19.47c0,0 -8.542,0 -8.542,0l0,17.085Zm34.168,-25.627l17.085,0l-0,85.421l-17.085,-0l0,-85.421Zm0,-25.626l17.085,0l-0,17.084l-17.085,0l0,-17.084Zm-37.183,146.22l-14.069,0l0,-28.138l35.173,-0l0,40.243c0,0 -21.104,7.035 -21.104,7.035l0,16.033c0,0 7.035,0 7.035,0l-0,-14.069l14.069,0l0,28.139l-35.173,-0l0,-40.244c0,0 21.104,-7.034 21.104,-7.035l-0,-16.033c-0,-0 -7.035,-0 -7.035,-0l0,14.069Z"/><path d="M77.54,322.206l-20.901,-9.437l2.337,-5.175l20.285,9.158l2.658,-8.427l5.416,1.709l-2.862,9.071l8.652,3.906l-2.337,5.176l-8.036,-3.628l-15.891,50.37c-0.264,0.84 -0.184,1.75 0.224,2.53c0.408,0.78 1.11,1.366 1.951,1.627l24.219,7.524l-1.685,5.423l-24.219,-7.524c-2.283,-0.709 -4.189,-2.299 -5.298,-4.417c-1.108,-2.119 -1.326,-4.591 -0.607,-6.871l16.094,-51.015Zm78.365,-21.164l-3.571,16.484c-0.384,1.774 -1.484,3.31 -3.039,4.245c-1.555,0.935 -3.428,1.186 -5.174,0.694l-41.521,-11.7l1.54,-5.466l41.521,11.7c0.239,0.067 0.495,0.033 0.707,-0.095c0.213,-0.128 0.363,-0.338 0.416,-0.58l2.6,-12.003c-0.118,-0.017 -0.237,-0.037 -0.356,-0.06l-12.279,-2.419c-3.479,-0.686 -5.744,-4.062 -5.059,-7.541l4.539,-23.038c0.686,-3.479 4.062,-5.744 7.541,-5.059l13.304,2.622l0.612,-2.825l5.55,1.203l-3.997,18.45l-2.67,13.548c-0.13,0.661 -0.357,1.279 -0.664,1.84Zm-2.228,-16.538l2.003,-10.165l-13.007,-2.563c-0.403,-0.079 -0.793,0.183 -0.872,0.585l-4.539,23.038c-0.079,0.402 0.183,0.792 0.585,0.871l12.279,2.419c0.175,0.035 0.348,0.005 0.494,-0.074l3.057,-14.111Zm-19.09,-48.51c-0.206,0.194 -0.427,0.376 -0.664,0.546l-10.842,7.784c-2.881,2.068 -6.892,1.41 -8.961,-1.471l-15.261,-21.258c-2.068,-2.88 -1.41,-6.892 1.471,-8.96l11.431,-8.207l-2.056,-2.843l4.602,-3.327l3.726,5.152l0.011,0.002l1.361,1.897l28.901,39.965c0.931,1.288 1.301,2.9 1.024,4.465c-0.278,1.566 -1.178,2.953 -2.495,3.843l-9.954,6.725l-3.179,-4.705l9.953,-6.726c0.044,-0.029 0.074,-0.075 0.083,-0.127c0.009,-0.052 -0.003,-0.105 -0.034,-0.148l-9.117,-12.607Zm-19.5,-26.963l-11.445,8.217c-0.333,0.239 -0.409,0.702 -0.17,1.035l15.261,21.258c0.239,0.333 0.703,0.409 1.036,0.17l10.843,-7.784c0.333,-0.239 0.409,-0.703 0.17,-1.036l-15.695,-21.86Zm-0.176,90.393c-0.902,0.022 -1.823,-0.107 -2.73,-0.403l-11.109,-3.618c-4.304,-1.401 -6.656,-6.026 -5.254,-10.33l3.174,-9.745c1.401,-4.303 6.026,-6.656 10.33,-5.254l13.892,4.525l4.04,-12.079l-8.228,-2.68l-3.387,6.42l-5.023,-2.649l4.503,-8.537l3.391,-1.375l11.402,3.714c1.202,0.391 2.197,1.246 2.766,2.375c0.568,1.129 0.662,2.438 0.262,3.636l-13.014,38.911l-5.386,-1.802l0.371,-1.109Zm2.2,-7.416l3.954,-12.137l-13.502,-4.398c-1.321,-0.43 -2.741,0.292 -3.172,1.614l-3.174,9.745c-0.43,1.321 0.292,2.741 1.614,3.172l11.108,3.618c1.322,0.43 2.742,-0.292 3.172,-1.614Zm-12.103,87.606c-1.293,0.402 -2.703,0.391 -4.023,-0.07l-11.131,-3.889c-3.427,-1.197 -5.946,-4.145 -6.594,-7.717l-1.581,-8.72c-0.407,-2.249 0.41,-4.544 2.147,-6.028c1.737,-1.484 4.132,-1.933 6.289,-1.18l10.846,3.79l-2.014,-11.854l-7.51,-2.37l-1.839,5.958l-5.427,-1.674l2.682,-8.689l3.567,-1.87l10.783,3.402c1.695,0.535 2.949,1.974 3.247,3.727l6.826,40.176l-5.598,0.951l-0.67,-3.943Zm-1.175,-6.264l-2.039,-11.244l-13.552,-4.735c-0.25,-0.087 -0.526,-0.035 -0.727,0.137c-0.201,0.171 -0.295,0.437 -0.248,0.696l1.581,8.72c0.283,1.56 1.382,2.847 2.879,3.37l11.131,3.889c0.249,0.087 0.526,0.035 0.727,-0.136c0.2,-0.172 0.295,-0.437 0.248,-0.697Zm6.056,-37.49l-12.063,-5.186l2.242,-5.217l8.471,3.641l-2.05,-10.271l5.568,-1.112l2.817,14.106l16.28,6.999l-2.243,5.217l-12.687,-5.454l8.804,44.092l16.136,-4.369l1.484,5.481l-16.161,4.376c-1.511,0.409 -3.125,0.174 -4.456,-0.651c-1.331,-0.825 -2.26,-2.164 -2.567,-3.7l-9.575,-47.952Zm-0.449,70.93l-13.499,3.753l-1.521,-5.471l14.066,-3.911l-1.608,-9.492l5.598,-0.949l1.511,8.912l30.728,-8.542l1.521,5.471l-31.295,8.7l7.216,42.581c0.14,0.828 0.593,1.571 1.265,2.076l16.595,12.477l-3.412,4.539l-16.596,-12.477c-1.833,-1.378 -3.068,-3.406 -3.451,-5.667l-7.118,-42Zm69.488,16.635c0.465,1.86 0.172,3.828 -0.814,5.472c-0.985,1.644 -2.584,2.829 -4.444,3.295l-7.486,1.873c-1.859,0.465 -3.828,0.173 -5.472,-0.813c-1.644,-0.986 -2.829,-2.585 -3.294,-4.445l-5.413,-21.631c-0.465,-1.86 -0.173,-3.829 0.813,-5.473c0.986,-1.644 2.585,-2.829 4.445,-3.294l7.485,-1.873c1.86,-0.466 3.828,-0.173 5.472,0.813c1.644,0.986 2.83,2.585 3.295,4.444l5.413,21.632Zm-5.509,1.378l-5.413,-21.631c-0.1,-0.399 -0.354,-0.742 -0.706,-0.953c-0.353,-0.211 -0.775,-0.274 -1.173,-0.174l-7.486,1.873c-0.399,0.099 -0.741,0.354 -0.953,0.706c-0.211,0.352 -0.274,0.774 -0.174,1.173l5.413,21.632c0.099,0.399 0.353,0.741 0.706,0.953c0.352,0.211 0.774,0.274 1.173,0.174l7.486,-1.873c0.398,-0.1 0.741,-0.354 0.952,-0.706c0.212,-0.353 0.275,-0.775 0.175,-1.174Zm-114.892,-233.051l2.547,-5.075l21.882,10.984l1.111,4.08l-29.714,45.921l45.753,-12.24l1.468,5.486l-52.877,14.145l-3.118,-4.285l31.999,-49.453l-19.051,-9.563Zm3.859,74.64l-1.717,-5.413l42.236,-13.396l3.19,4.327l-31.332,45.078l22.723,6.463l-1.554,5.463l-26.546,-7.551l-1.554,-4.352l28.84,-41.493l-34.286,10.874Zm29.641,-67.4l5.554,1.182l-6.706,31.517l-5.554,-1.182l6.706,-31.517Zm10.957,-22.023c5.545,2.455 8.055,8.949 5.6,14.495c-2.454,5.545 -8.949,8.054 -14.494,5.6c-5.545,-2.454 -8.055,-8.949 -5.601,-14.494c2.455,-5.546 8.95,-8.055 14.495,-5.601Zm50.513,260.213c0.391,1.877 0.021,3.832 -1.029,5.436c-1.05,1.604 -2.695,2.725 -4.571,3.117l-10.093,2.105c-1.877,0.391 -3.832,0.021 -5.436,-1.029c-1.604,-1.05 -2.725,-2.694 -3.116,-4.571l-5.595,-26.819c-0.391,-1.877 -0.021,-3.832 1.029,-5.436c1.05,-1.604 2.695,-2.725 4.571,-3.116l10.093,-2.106c1.877,-0.391 3.832,-0.021 5.436,1.029c1.604,1.05 2.725,2.695 3.116,4.571l5.595,26.819Zm-5.559,1.16l-5.595,-26.819c-0.084,-0.402 -0.324,-0.755 -0.668,-0.98c-0.344,-0.225 -0.763,-0.305 -1.165,-0.221l-10.093,2.106c-0.402,0.084 -0.755,0.324 -0.98,0.668c-0.225,0.344 -0.305,0.763 -0.221,1.165l5.595,26.819c0.084,0.403 0.324,0.755 0.668,0.98c0.344,0.225 0.763,0.305 1.165,0.221l10.093,-2.106c0.402,-0.083 0.755,-0.324 0.98,-0.668c0.225,-0.343 0.305,-0.763 0.221,-1.165Z"/></g></svg>