<?xml version="1.0" encoding="UTF-8" standalone="no"?><!DOCTYPE svg PUBLIC "-//W3C//DTD SVG 1.1//EN" "http://www.w3.org/Graphics/SVG/1.1/DTD/svg11.dtd"><svg width="100%" height="100%" viewBox="0 0 400 501" version="1.1" xmlns="http://www.w3.org/2000/svg" xmlns:xlink="http://www.w3.org/1999/xlink" xml:space="preserve" xmlns:serif="http://www.serif.com/" style="fill-rule:evenodd;clip-rule:evenodd;stroke-linejoin:round;stroke-miterlimit:2;"><rect id="zig-zag-tattoo-process-1" serif:id="zig-zag-tattoo/process-1" x="0" y="0.487" width="400" height="500" style="fill:none;"/><clipPath id="_clip1"><rect id="zig-zag-tattoo-process-11" serif:id="zig-zag-tattoo/process-1" x="0" y="0.487" width="400" height="500"/></clipPath><g clip-path="url(#_clip1)"><rect x="-15.5" y="-13.5" width="430" height="537.05" style="fill:#f5f5f5;"/><path d="M145.942,274.449l1.819,-4.831l-7.81,-20.063l-37.224,18.371l-4.485,24.031l7.89,3.905l39.81,-21.413Zm-47.479,-11.535l-3.271,-6.012l-42.153,1.855l13.115,23.755l26.797,7.415l5.512,-27.013Zm33.913,7.288l-17.349,9.928c0,-0.001 0.148,-7.525 0.148,-7.525l15.63,-8.474l1.571,6.071Zm-48.013,-2.383l-0.56,7.763c0,0 -9.034,-0.366 -9.034,-0.366l-3.567,-7.308l13.161,-0.089Zm57.071,-34.083l12.123,29.854l6.866,-11.495l-4.144,-18.232l10.329,1.056l2.756,-18.155l-40.143,8.852l3.483,7.877l8.73,0.243Zm-57.287,3.981l14.726,6.964l6.983,14.049l11.491,-5.254l-26.91,-44.235l-7.219,-1.671l-11.518,30.192l10.402,7.504l2.045,-7.549Zm28.324,-13.934l13.673,25.047l8.407,-3.605l-11.805,-23.897l47.771,-11.151l4.164,-22.394l-75.665,28.214l5.707,9.535l7.748,-1.749Zm-48.898,-27.069l-6.103,26.563l7.693,6.494l13.081,-30.03l13.207,2.725l0.878,-9.62l-43.188,-18.54l1.245,18.941l13.187,3.467Zm22.733,32.905l6.891,3.643l-5.117,-10.294l-1.774,6.651Zm23.621,-34.703l10.862,-6.674l2.506,6.76l8.036,-4.566l-20.181,-53.312l-8.818,1.303l-4.912,64.826l2.362,5.764l10.264,-6.428l-0.119,-7.673Zm31.863,-37.937l7.457,-1.704c0,-0 1.639,4.612 1.639,4.612c0,0 -8.811,9.351 -8.811,9.351c-0,0 -12.582,-31.6 -12.582,-31.6c0,0 8.5,1.099 8.5,1.099l0.34,6.832l9.004,-4.265l5.527,-11.602l-35.479,-4.719l-2.385,6.757l20.259,51.08l6.698,2.097l21.62,-21.697l-0.845,-23.407l-23.599,10.166l2.657,7Zm-96.301,-9.621l37.964,-2.509c0,0 -35.159,13.106 -35.159,13.106l0.88,9.089l43.74,17.853l1.499,-17.303l-27.818,-3.255c0,0 27.77,-7.978 27.77,-7.978l2.49,-18.469l-55.739,-6.884l4.373,16.35Zm64.141,32.279l6.238,-4.668l-6.522,-17.589l0.284,22.257Zm-59.64,-103.945l25.951,-9.854c-0,-0 -30.887,37.39 -30.887,37.39l57.114,29.466l7.269,-1.913l3.515,-8.301l-38.273,-24.168c-0,-0 23.502,-38.553 23.502,-38.553l-7.677,-15.146l-37.961,15.921l-2.553,15.158Zm79.567,29.116l6.827,0.636c-0,0 0.379,7.627 0.379,7.627c-0,0 -11.884,-3.098 -11.884,-3.098c0,-0.001 -0.475,-33.492 -0.475,-33.492c-0,0.001 9.577,6.5 9.577,6.5l-4.562,8.2l8.231,2.572l9.084,-11.92l-23.668,-22.798l-7.566,6.262l-2.762,48.755l3.816,4.772l36.034,6.13l-9.878,-25.033l-13.605,-4.236l0.452,9.123Zm-24.686,6.706l5,-46.007l-6.987,-1.835l-18.525,34.894l20.512,12.948Zm5.023,-65.821c3.538,-0 6.411,2.872 6.411,6.411c-0,3.538 -2.873,6.41 -6.411,6.41c-3.538,0 -6.41,-2.872 -6.41,-6.41c-0,-3.539 2.872,-6.411 6.41,-6.411Z"/><path d="M267.306,383.733l-2.197,6.592l-0,4.751l-11.342,-0l-0,-6.592l12.926,-38.777l13.846,-0l12.926,38.777l-0,6.592l-11.343,-0l0,-4.751l-2.197,-6.592l-12.619,0Zm8.838,-11.342l-2.528,-7.586l-2.529,7.586l5.057,0Zm-5.364,-62.382l0,17.013l-11.342,0l-0,-45.369l28.355,0l0,45.369l-11.342,0l0,-17.013l-5.671,-0Zm5.671,-11.342l0,-5.671c0,-0 -5.671,-0 -5.671,-0l0,5.671l5.671,-0Zm-34.027,113.422l-17.013,-0l0,-11.342l96.409,-0l0,11.342l-68.053,-0l-0,51.04l-11.343,0l0,-51.04Zm41.347,-68.053l-7.32,-0l0,-11.343l34.027,0l-0,11.343l-14.689,-0l14.689,41.936l-0,9.104l-11.342,-0l-0,-7.175l-15.365,-43.865Zm-32.329,-0l-14.689,-0l0,-11.343l34.027,0l0,11.343l-7.32,-0l-15.364,43.865l-0,7.175l-11.343,-0l0,-9.104l14.689,-41.936Zm42.023,119.093l-0,-45.369l28.355,0l0,45.369l-28.355,0Zm17.013,-11.342l-0,-22.685l-5.671,0l-0,22.685l5.671,-0Zm-51.04,11.342l-0,-45.369l28.355,0l0,45.369l-28.355,0Zm17.013,-11.342l0,-22.685l-5.671,0l0,22.685l5.671,-0Zm-5.671,-175.805l-11.342,0l-0,-45.369l11.342,0l0,45.369Zm-45.369,17.014l0,-11.343l28.57,0l-11.109,34.027l10.895,-0l-0,11.342l-26.53,0l11.109,-34.026l-12.935,-0Zm0,-51.041l0,-11.342l28.57,0l-11.109,34.027l10.895,-0l-0,11.342l-26.53,0l11.109,-34.027l-12.935,0Zm85.067,-11.342l-0,11.342l-22.685,0c0,0 0,22.685 0,22.685l11.343,-0l-0,-5.671l-5.671,-0l-0,-11.342l17.013,-0l-0,28.355l-34.027,0l0,-45.369l34.027,0Zm17.013,51.04l0,11.343l-22.684,-0c-0,-0 -0,22.684 -0,22.684l11.342,-0l0,-5.671l-5.671,-0l-0,-11.342l17.013,-0l0,28.355l-34.026,0l-0,-45.369l34.026,0Z"/></g></svg>