<?xml version="1.0" encoding="UTF-8" standalone="no"?><!DOCTYPE svg PUBLIC "-//W3C//DTD SVG 1.1//EN" "http://www.w3.org/Graphics/SVG/1.1/DTD/svg11.dtd"><svg width="100%" height="100%" viewBox="0 0 500 500" version="1.1" xmlns="http://www.w3.org/2000/svg" xmlns:xlink="http://www.w3.org/1999/xlink" xml:space="preserve" xmlns:serif="http://www.serif.com/" style="fill-rule:evenodd;clip-rule:evenodd;stroke-linejoin:round;stroke-miterlimit:2;"><rect id="mask-0" x="-0" y="-0" width="500" height="500" style="fill:none;"/><path d="M0,236.145c-0,-15.203 6.039,-29.783 16.789,-40.533c10.75,-10.75 25.33,-16.789 40.533,-16.789l0.002,-0c15.203,-0 29.783,6.039 40.533,16.789c10.75,10.75 16.789,25.33 16.789,40.533l0,138.22c0,15.202 -6.039,29.782 -16.789,40.532c-10.75,10.75 -25.33,16.79 -40.533,16.79l-0.002,-0c-15.203,-0 -29.783,-6.04 -40.533,-16.79c-10.75,-10.75 -16.789,-25.33 -16.789,-40.532l0,-138.22Z" style="fill:#0032e6;"/><path d="M201.265,115.039c0,22.706 -18.406,41.112 -41.112,41.112c0,-0 -0,-0 -0,-0c-22.706,-0 -41.112,-18.406 -41.112,-41.112c-0,-10.148 -0,-21.019 -0,-31.167c-0,-22.705 18.406,-41.112 41.112,-41.112c-0,0 0,0 0,0c22.706,0 41.112,18.407 41.112,41.112c0,10.148 0,21.019 0,31.167Z" style="fill:#2d77ff;"/><path d="M283.489,228.575c0,-10.904 -4.331,-21.361 -12.041,-29.071c-7.71,-7.71 -18.167,-12.041 -29.071,-12.041c0,-0 0,-0 0,-0c-10.903,-0 -21.36,4.331 -29.07,12.041c-7.71,7.71 -12.042,18.167 -12.042,29.071c0,34.435 0,83.343 0,117.778c0,10.903 4.332,21.36 12.042,29.07c7.71,7.71 18.167,12.042 29.07,12.042c0,-0 0,-0 0,-0c10.904,-0 21.361,-4.332 29.071,-12.042c7.71,-7.71 12.041,-18.167 12.041,-29.07c0,-34.435 0,-83.343 0,-117.778Z" style="fill:#0032e6;"/><path d="M446.103,407.814c-0,8.238 -3.272,16.138 -9.097,21.963c-5.825,5.825 -13.725,9.097 -21.963,9.097l-0.003,0c-8.238,0 -16.138,-3.272 -21.963,-9.097c-5.825,-5.825 -9.097,-13.725 -9.097,-21.963l-0,-137.882c-0,-8.237 3.272,-16.138 9.097,-21.963c5.825,-5.824 13.725,-9.097 21.963,-9.097l0.003,0c8.238,0 16.138,3.273 21.963,9.097c5.825,5.825 9.097,13.726 9.097,21.963l-0,137.882Z" style="fill:#0032e6;"/><path d="M497.055,353.136c-0,-6.756 -2.684,-13.236 -7.461,-18.013c-4.778,-4.777 -11.257,-7.461 -18.013,-7.461c-0.001,-0 -0.003,-0 -0.004,-0c-6.756,-0 -13.236,2.684 -18.013,7.461c-4.777,4.777 -7.461,11.257 -7.461,18.013c-0,14.081 -0,31.523 -0,45.604c-0,6.756 2.684,13.236 7.461,18.013c4.777,4.777 11.257,7.461 18.013,7.461c0.001,0 0.003,0 0.004,0c6.756,0 13.235,-2.684 18.013,-7.461c4.777,-4.777 7.461,-11.257 7.461,-18.013c-0,-14.081 -0,-31.523 -0,-45.604Z" style="fill:#0032e6;"/><path d="M497.055,174.93c-0,-14.069 -11.405,-25.474 -25.474,-25.474l-0.004,-0c-14.069,-0 -25.474,11.405 -25.474,25.474l-0,24.597c-0,14.068 11.405,25.474 25.474,25.474l0.004,-0c14.069,-0 25.474,-11.406 25.474,-25.474l-0,-24.597Z" style="fill:#2d77ff;"/><path d="M114.646,426.665c0,23.918 19.39,43.308 43.308,43.308l0.003,0c23.918,0 43.308,-19.39 43.308,-43.308l0,-95.893c0,-23.919 -19.39,-43.308 -43.308,-43.308l-0.003,-0c-23.918,-0 -43.308,19.389 -43.308,43.308l0,95.893Z" style="fill:#0032e6;"/><path d="M383.98,111.223c-0,-27.749 -22.495,-50.244 -50.244,-50.244c-0.001,-0 -0.002,-0 -0.003,-0c-27.749,-0 -50.244,22.495 -50.244,50.244c0,56.603 0,148.065 0,204.668c0,27.749 22.495,50.244 50.244,50.244c0.001,-0 0.002,-0 0.003,-0c27.749,-0 50.244,-22.495 50.244,-50.244c-0,-56.603 -0,-148.065 -0,-204.668Z" style="fill:#0032e6;"/><path d="M347.063,434.334c0,-17.555 -14.231,-31.786 -31.786,-31.786l-0.002,0c-17.554,0 -31.786,14.231 -31.786,31.786l0,11.973c0,17.555 14.232,31.786 31.786,31.786l0.002,0c17.555,0 31.786,-14.231 31.786,-31.786l0,-11.973Z" style="fill:#5f96ff;"/></svg>