<?xml version="1.0" encoding="UTF-8" standalone="no"?><!DOCTYPE svg PUBLIC "-//W3C//DTD SVG 1.1//EN" "http://www.w3.org/Graphics/SVG/1.1/DTD/svg11.dtd"><svg width="100%" height="100%" viewBox="0 0 501 501" version="1.1" xmlns="http://www.w3.org/2000/svg" xmlns:xlink="http://www.w3.org/1999/xlink" xml:space="preserve" xmlns:serif="http://www.serif.com/" style="fill-rule:evenodd;clip-rule:evenodd;stroke-linejoin:round;stroke-miterlimit:2;"><rect id="mask-5" x="0.808" y="0.879" width="500" height="500" style="fill:none;"/><path d="M136.808,315.036c0,-1.49 -0.592,-2.92 -1.646,-3.974c-1.054,-1.054 -2.483,-1.646 -3.974,-1.646l-0.003,0c-3.104,0 -5.62,2.516 -5.62,5.62l-0,1.962c-0,1.49 0.592,2.92 1.646,3.974c1.054,1.054 2.483,1.646 3.974,1.646l0.003,-0c1.491,-0 2.92,-0.592 3.974,-1.646c1.054,-1.054 1.646,-2.484 1.646,-3.974l0,-1.962Z" style="fill:#ff9500;"/><path d="M134.533,215.778c-0,-2.674 -2.168,-4.842 -4.842,-4.842c-0,0 -0,0 -0.001,0c-2.674,0 -4.841,2.168 -4.841,4.842c-0,5.179 -0,13.343 -0,18.521c-0,2.674 2.167,4.842 4.841,4.842c0.001,-0 0.001,-0 0.001,-0c2.674,-0 4.842,-2.168 4.842,-4.842c-0,-5.178 -0,-13.342 -0,-18.521Z" style="fill:#ff2b00;"/><path d="M197.338,180.053c0,-1.299 -0.516,-2.545 -1.434,-3.464c-0.919,-0.918 -2.165,-1.434 -3.464,-1.434c-0.001,-0 -0.002,-0 -0.003,-0c-1.299,-0 -2.545,0.516 -3.463,1.434c-0.919,0.919 -1.435,2.165 -1.435,3.464c0,8.837 0,27.35 0,36.187c0,1.299 0.516,2.545 1.435,3.463c0.918,0.919 2.164,1.435 3.463,1.435c0.001,-0 0.002,-0 0.003,-0c1.299,-0 2.545,-0.516 3.464,-1.435c0.918,-0.918 1.434,-2.164 1.434,-3.463c0,-8.837 0,-27.35 0,-36.187Z" style="fill:#f50;"/><path d="M197.338,286.915c0,-1.299 -0.516,-2.545 -1.434,-3.463c-0.919,-0.919 -2.165,-1.435 -3.464,-1.435c-0.001,0 -0.002,0 -0.003,0c-1.299,0 -2.545,0.516 -3.463,1.435c-0.919,0.918 -1.435,2.164 -1.435,3.463c0,5.802 0,15.411 0,21.213c0,1.299 0.516,2.545 1.435,3.464c0.918,0.918 2.164,1.434 3.463,1.434c0.001,0 0.002,0 0.003,0c1.299,0 2.545,-0.516 3.464,-1.434c0.918,-0.919 1.434,-2.165 1.434,-3.464c0,-5.802 0,-15.411 0,-21.213Z" style="fill:#ff2b00;"/><path d="M278.203,457.252c0,-3.304 -2.678,-5.982 -5.982,-5.982c-0,0 -0.001,0 -0.001,0c-3.304,0 -5.982,2.678 -5.982,5.982c0,4.537 0,10.746 0,15.283c0,3.304 2.678,5.982 5.982,5.982c0,-0 0.001,-0 0.001,-0c3.304,-0 5.982,-2.678 5.982,-5.982c0,-4.537 0,-10.746 0,-15.283Z" style="fill:#ff2b00;"/><path d="M410.827,51.837c-0,-4.309 -3.493,-7.802 -7.802,-7.802c-0.001,-0 -0.002,-0 -0.002,-0c-4.309,-0 -7.802,3.493 -7.802,7.802c-0,5.275 -0,12.215 -0,17.49c-0,4.309 3.493,7.802 7.802,7.802c0,0 0.001,0 0.002,0c4.309,0 7.802,-3.493 7.802,-7.802c-0,-5.275 -0,-12.215 -0,-17.49Z" style="fill:#ff6a00;"/><path d="M278.203,345.282c0,3.304 -2.678,5.982 -5.982,5.982c-0,0 -0.001,0 -0.001,0c-3.304,0 -5.982,-2.678 -5.982,-5.982c0,-1.36 0,-2.806 0,-4.167c0,-3.303 2.678,-5.982 5.982,-5.982c0,0 0.001,0 0.001,0c3.304,0 5.982,2.679 5.982,5.982c0,1.361 0,2.807 0,4.167Z" style="fill:#ff9500;"/><path d="M137.494,109.423c-0,4.309 -3.493,7.802 -7.802,7.802c-0.001,-0 -0.002,-0 -0.003,-0c-4.309,-0 -7.802,-3.493 -7.802,-7.802c0,-5.118 0,-11.785 0,-16.902c0,-4.309 3.493,-7.802 7.802,-7.802c0.001,-0 0.002,-0 0.003,-0c4.309,-0 7.802,3.493 7.802,7.802c-0,5.117 -0,11.784 -0,16.902Z" style="fill:#ff9500;"/><path d="M338.681,396.709c-0,-0.964 -0.383,-1.888 -1.064,-2.569c-0.681,-0.681 -1.605,-1.063 -2.568,-1.063c-0.001,-0 -0.002,-0 -0.004,-0c-0.963,-0 -1.887,0.382 -2.568,1.063c-0.681,0.681 -1.064,1.605 -1.064,2.569c0,5.315 0,15.155 0,20.47c0,0.963 0.383,1.887 1.064,2.568c0.681,0.681 1.605,1.064 2.568,1.064c0.002,-0 0.003,-0 0.004,-0c0.963,-0 1.887,-0.383 2.568,-1.064c0.681,-0.681 1.064,-1.605 1.064,-2.568c-0,-5.315 -0,-15.155 -0,-20.47Z" style="fill:#f50;"/><path d="M472.842,353.939c0,-2.674 -2.168,-4.842 -4.842,-4.842c0,0 -0,0 -0,0c-2.674,0 -4.842,2.168 -4.842,4.842c-0,2.687 -0,6.017 -0,8.704c-0,2.674 2.168,4.842 4.842,4.842c-0,-0 0,-0 0,-0c2.674,-0 4.842,-2.168 4.842,-4.842c0,-2.687 0,-6.017 0,-8.704Z" style="fill:#ff2b00;"/><path d="M82.655,131.286c-0,-2.006 -1.627,-3.632 -3.632,-3.632c-0.002,-0 -0.003,-0 -0.004,-0c-2.006,-0 -3.632,1.626 -3.632,3.632c-0,0.968 -0,2.015 -0,2.983c-0,2.006 1.626,3.632 3.632,3.632c0.001,0 0.002,0 0.004,0c2.005,0 3.632,-1.626 3.632,-3.632c-0,-0.968 -0,-2.015 -0,-2.983Z" style="fill:#ff2b00;"/><path d="M79.021,362.314c-0,-1.219 -0.484,-2.388 -1.346,-3.25c-0.862,-0.862 -2.031,-1.346 -3.25,-1.346c-0.001,-0 -0.001,-0 -0.002,-0c-1.219,-0 -2.388,0.484 -3.25,1.346c-0.862,0.862 -1.346,2.031 -1.346,3.25c0,7.74 0,23.286 0,31.026c0,1.218 0.484,2.387 1.346,3.249c0.862,0.862 2.031,1.347 3.25,1.347c0.001,-0 0.001,-0 0.002,-0c1.219,-0 2.388,-0.485 3.25,-1.347c0.862,-0.862 1.346,-2.031 1.346,-3.249c-0,-7.74 -0,-23.286 -0,-31.026Z" style="fill:#f50;"/><path d="M45.49,250.771c0,-3.642 -2.952,-6.594 -6.594,-6.594c-0.515,-0 -1.035,-0 -1.551,-0c-3.641,-0 -6.594,2.952 -6.594,6.594c0,0.001 0,0.001 0,0.002c0,3.642 2.953,6.594 6.594,6.594c0.516,0 1.036,0 1.551,0c3.642,0 6.594,-2.952 6.594,-6.594c0,-0.001 0,-0.001 0,-0.002Z" style="fill:#ff2b00;"/><path d="M363.393,166.587c0,-1.669 -0.663,-3.271 -1.844,-4.452c-1.18,-1.18 -2.782,-1.844 -4.452,-1.844c-0.001,0 -0.002,0 -0.003,0c-1.669,0 -3.271,0.664 -4.452,1.844c-1.18,1.181 -1.844,2.783 -1.844,4.452c0,2.941 0,6.434 0,9.374c0,1.67 0.664,3.271 1.844,4.452c1.181,1.181 2.783,1.844 4.452,1.844c0.001,0 0.002,0 0.003,0c1.67,0 3.272,-0.663 4.452,-1.844c1.181,-1.181 1.844,-2.782 1.844,-4.452c0,-2.94 0,-6.433 0,-9.374Z" style="fill:#ff9500;"/><path d="M429.467,262.737c0,-4.309 -3.493,-7.802 -7.802,-7.802c-0.001,-0 -0.001,-0 -0.002,-0c-4.309,-0 -7.802,3.493 -7.802,7.802c-0,1.274 -0,2.595 -0,3.869c-0,4.309 3.493,7.802 7.802,7.802c0.001,0 0.001,0 0.002,0c4.309,0 7.802,-3.493 7.802,-7.802c0,-1.274 0,-2.595 0,-3.869Z" style="fill:#ff9500;"/></svg>