<?xml version="1.0" encoding="UTF-8" standalone="no"?><!DOCTYPE svg PUBLIC "-//W3C//DTD SVG 1.1//EN" "http://www.w3.org/Graphics/SVG/1.1/DTD/svg11.dtd"><svg width="100%" height="100%" viewBox="0 0 500 500" version="1.1" xmlns="http://www.w3.org/2000/svg" xmlns:xlink="http://www.w3.org/1999/xlink" xml:space="preserve" xmlns:serif="http://www.serif.com/" style="fill-rule:evenodd;clip-rule:evenodd;stroke-linejoin:round;stroke-miterlimit:2;"><rect id="mask-1" x="0" y="-0" width="500" height="500" style="fill:none;"/><clipPath id="_clip1"><rect x="0" y="-0" width="500" height="500"/></clipPath><g clip-path="url(#_clip1)"><path d="M189.712,219.464c0,-18.309 -14.841,-33.15 -33.15,-33.15c-0.001,-0 -0.002,-0 -0.003,-0c-18.308,-0 -33.15,14.841 -33.15,33.15c0,41.236 0,111.223 0,152.459c0,18.308 14.842,33.15 33.15,33.15c0.001,0 0.002,0 0.003,0c18.309,0 33.15,-14.842 33.15,-33.15c0,-41.236 0,-111.223 0,-152.459Z" style="fill:#0032e6;"/><path d="M256.015,401.324c0,18.308 -14.841,33.15 -33.15,33.15c-0.001,0 -0.002,0 -0.003,0c-18.308,0 -33.15,-14.842 -33.15,-33.15c0,-21.924 0,-50.557 0,-72.481c0,-18.308 14.842,-33.15 33.15,-33.15c0.001,0 0.002,0 0.003,0c18.309,0 33.15,14.842 33.15,33.15c0,21.924 0,50.557 0,72.481Z" style="fill:#2d77ff;"/><path d="M256.015,153.885c0,18.308 -14.842,33.15 -33.15,33.15c-0.001,-0 -0.002,-0 -0.003,-0c-18.308,-0 -33.15,-14.842 -33.15,-33.15c0,-10.392 0,-21.859 0,-32.25c0,-18.309 14.842,-33.15 33.15,-33.15c0.001,-0 0.002,-0 0.003,-0c18.308,-0 33.15,14.841 33.15,33.15c0,10.391 0,21.858 0,32.25Z" style="fill:#0032e6;"/><path d="M342.931,335.037c-0,24 -19.456,43.456 -43.456,43.456l-0.004,0c-24,0 -43.456,-19.456 -43.456,-43.456l0,-78.687c0,-24 19.456,-43.456 43.456,-43.456l0.004,-0c24,-0 43.456,19.456 43.456,43.456l-0,78.687Z" style="fill:#0032e6;"/><path d="M385.787,335.161c0,5.683 -2.257,11.133 -6.276,15.152c-4.018,4.018 -9.469,6.276 -15.152,6.276l-0,-0c-5.683,-0 -11.134,-2.258 -15.152,-6.276c-4.019,-4.019 -6.276,-9.469 -6.276,-15.152l-0,-55.694c-0,-5.683 2.257,-11.134 6.276,-15.152c4.018,-4.019 9.469,-6.276 15.152,-6.276l0,-0c5.683,-0 11.134,2.257 15.152,6.276c4.019,4.018 6.276,9.469 6.276,15.152l0,55.694Z" style="fill:#2d77ff;"/><path d="M385.787,155.701c0,5.683 -2.257,11.133 -6.276,15.152c-4.018,4.018 -9.469,6.276 -15.152,6.276c0,0 -0,0 -0,0c-5.683,0 -11.134,-2.258 -15.152,-6.276c-4.019,-4.019 -6.276,-9.469 -6.276,-15.152c-0,-23.36 -0,-60.522 -0,-83.883c-0,-5.683 2.257,-11.133 6.276,-15.151c4.018,-4.019 9.469,-6.277 15.152,-6.277c-0,0 0,0 0,0c5.683,0 11.134,2.258 15.152,6.277c4.019,4.018 6.276,9.468 6.276,15.151c0,23.361 0,60.523 0,83.883Z" style="fill:#5f96ff;"/><path d="M385.787,440.219c0,5.683 -2.257,11.134 -6.276,15.152c-4.018,4.019 -9.469,6.276 -15.152,6.276l-0,0c-5.683,0 -11.134,-2.257 -15.152,-6.276c-4.019,-4.018 -6.276,-9.469 -6.276,-15.152l-0,-32.812c-0,-5.683 2.257,-11.133 6.276,-15.151c4.018,-4.019 9.469,-6.277 15.152,-6.277l0,0c5.683,0 11.134,2.258 15.152,6.277c4.019,4.018 6.276,9.468 6.276,15.151l0,32.812Z" style="fill:#a0d0fe;"/><path d="M500,222.352c0,-7.572 -3.008,-14.835 -8.363,-20.189c-5.354,-5.355 -12.617,-8.363 -20.189,-8.363l-0.002,0c-7.573,0 -14.835,3.008 -20.19,8.363c-5.354,5.354 -8.362,12.617 -8.362,20.189l-0,146.683c-0,7.572 3.008,14.834 8.362,20.189c5.355,5.355 12.617,8.363 20.19,8.363l0.002,-0c7.572,-0 14.835,-3.008 20.189,-8.363c5.355,-5.355 8.363,-12.617 8.363,-20.189l-0,-146.683Z" style="fill:#2d77ff;"/><path d="M66.303,226.95c-0,-18.308 -14.842,-33.15 -33.15,-33.15l-0.003,0c-18.308,0 -33.15,14.842 -33.15,33.15l0,66.953c0,18.309 14.842,33.15 33.15,33.15l0.003,0c18.308,0 33.15,-14.841 33.15,-33.15l-0,-66.953Z" style="fill:#0032e6;"/><path d="M123.409,275.751c0,-7.573 -3.008,-14.835 -8.362,-20.19c-5.355,-5.354 -12.617,-8.362 -20.19,-8.362c-0,-0 -0.001,-0 -0.002,-0c-7.572,-0 -14.835,3.008 -20.189,8.362c-5.355,5.355 -8.363,12.617 -8.363,20.19c-0,23.885 -0,57.791 -0,81.676c-0,7.573 3.008,14.835 8.363,20.19c5.354,5.354 12.617,8.362 20.189,8.362c0.001,0 0.002,0 0.002,0c7.573,0 14.835,-3.008 20.19,-8.362c5.354,-5.355 8.362,-12.617 8.362,-20.19c0,-23.885 0,-57.791 0,-81.676Z" style="fill:#2d77ff;"/><path d="M123.409,446.531c0,-7.572 -3.008,-14.834 -8.362,-20.189c-5.355,-5.354 -12.617,-8.363 -20.19,-8.363l-0.002,0c-7.572,0 -14.835,3.009 -20.189,8.363c-5.355,5.355 -8.363,12.617 -8.363,20.189l-0,6.896c-0,7.573 3.008,14.835 8.363,20.19c5.354,5.354 12.617,8.362 20.189,8.362l0.002,0c7.573,0 14.835,-3.008 20.19,-8.362c5.354,-5.355 8.362,-12.617 8.362,-20.19l0,-6.896Z" style="fill:#a0d0fe;"/><path d="M123.409,38.517c0,-15.768 -12.783,-28.552 -28.552,-28.552c-0,0 -0.001,0 -0.002,0c-15.769,0 -28.552,12.784 -28.552,28.552c-0,22.482 -0,53.668 -0,76.15c-0,15.768 12.783,28.552 28.552,28.552c0.001,-0 0.002,-0 0.002,-0c15.769,-0 28.552,-12.784 28.552,-28.552c0,-22.482 0,-53.668 0,-76.15Z" style="fill:#5f96ff;"/><path d="M442.894,211.771c-0,-7.573 -3.008,-14.835 -8.363,-20.19c-5.355,-5.354 -12.617,-8.362 -20.189,-8.362c-0.001,-0 -0.002,-0 -0.003,-0c-7.572,-0 -14.834,3.008 -20.189,8.362c-5.354,5.355 -8.363,12.617 -8.363,20.19c0,23.885 0,57.791 0,81.676c0,7.573 3.009,14.835 8.363,20.19c5.355,5.354 12.617,8.362 20.189,8.362c0.001,0 0.002,0 0.003,0c7.572,0 14.834,-3.008 20.189,-8.362c5.355,-5.355 8.363,-12.617 8.363,-20.19c-0,-23.885 -0,-57.791 -0,-81.676Z" style="fill:#2d77ff;"/></g></svg>