<?xml version="1.0" encoding="UTF-8" standalone="no"?><!DOCTYPE svg PUBLIC "-//W3C//DTD SVG 1.1//EN" "http://www.w3.org/Graphics/SVG/1.1/DTD/svg11.dtd"><svg width="100%" height="100%" viewBox="0 0 501 501" version="1.1" xmlns="http://www.w3.org/2000/svg" xmlns:xlink="http://www.w3.org/1999/xlink" xml:space="preserve" xmlns:serif="http://www.serif.com/" style="fill-rule:evenodd;clip-rule:evenodd;stroke-linejoin:round;stroke-miterlimit:2;"><rect id="mask-4" x="0.808" y="0.879" width="500" height="500" style="fill:none;"/><path d="M365.608,351.356c0,4.334 3.514,7.848 7.848,7.848c0.001,0 0.002,0 0.003,0c4.334,0 7.848,-3.514 7.848,-7.848c0,-2.237 0,-4.675 0,-6.912c0,-4.335 -3.514,-7.848 -7.848,-7.848c-0.001,-0 -0.002,-0 -0.003,-0c-4.334,-0 -7.848,3.513 -7.848,7.848c0,2.237 0,4.675 0,6.912Z" style="fill:#ff9500;"/><path d="M216.659,210.515c0,2.081 0.827,4.077 2.299,5.549c1.471,1.472 3.468,2.299 5.549,2.299l0.003,-0c2.082,-0 4.078,-0.827 5.549,-2.299c1.472,-1.472 2.299,-3.468 2.299,-5.549l0,-1.869c0,-2.081 -0.827,-4.077 -2.299,-5.549c-1.471,-1.472 -3.467,-2.299 -5.549,-2.299l-0.003,0c-2.081,0 -4.078,0.827 -5.549,2.299c-1.472,1.472 -2.299,3.468 -2.299,5.549l0,1.869Z" style="fill:#ff4000;"/><path d="M351.006,47.744c0,2.081 0.827,4.077 2.299,5.549c1.472,1.472 3.468,2.299 5.549,2.299l0.003,-0c2.082,-0 4.078,-0.827 5.55,-2.299c1.472,-1.472 2.298,-3.468 2.298,-5.549l0,-1.868c0,-2.082 -0.826,-4.078 -2.298,-5.55c-1.472,-1.472 -3.468,-2.298 -5.55,-2.299l-0.003,0c-2.081,0.001 -4.077,0.827 -5.549,2.299c-1.472,1.472 -2.299,3.468 -2.299,5.55l0,1.868Z" style="fill:#ff9500;"/><path d="M366.705,410.096c0,1.791 0.712,3.508 1.978,4.775c1.266,1.266 2.984,1.977 4.774,1.977c0.001,0 0.001,0 0.001,0c1.791,0 3.508,-0.711 4.774,-1.977c1.267,-1.267 1.978,-2.984 1.978,-4.775c-0,-6.328 -0,-15.735 -0,-22.063c-0,-1.791 -0.711,-3.508 -1.978,-4.774c-1.266,-1.267 -2.983,-1.978 -4.774,-1.978c-0,0 -0,0 -0.001,0c-1.79,0 -3.508,0.711 -4.774,1.978c-1.266,1.266 -1.978,2.983 -1.978,4.774c0,6.328 0,15.735 0,22.063Z" style="fill:#ff9500;"/><path d="M297.036,346.547c0,3.626 1.44,7.103 4.004,9.667c2.564,2.564 6.042,4.005 9.668,4.005c0.001,-0 0.002,-0 0.003,-0c3.626,-0 7.104,-1.441 9.668,-4.005c2.564,-2.564 4.004,-6.041 4.004,-9.667c0,-6.133 0,-13.35 0,-19.482c0,-3.626 -1.44,-7.104 -4.004,-9.668c-2.564,-2.564 -6.042,-4.004 -9.668,-4.004c-0.001,-0 -0.002,-0 -0.003,-0c-3.626,-0 -7.104,1.44 -9.668,4.004c-2.564,2.564 -4.004,6.042 -4.004,9.668c0,6.132 0,13.349 0,19.482Z" style="fill:#ffbf00;"/><path d="M214.232,254.865c-0,5.676 4.6,10.276 10.276,10.276c0,0 0.001,0 0.001,0c5.676,0 10.276,-4.6 10.276,-10.276c0,-4.717 0,-10.297 0,-15.015c0,-5.675 -4.6,-10.276 -10.276,-10.276c-0,0 -0.001,0 -0.001,0c-5.676,0 -10.276,4.601 -10.276,10.276c-0,4.718 -0,10.298 -0,15.015Z" style="fill:#ff9500;"/><path d="M163.034,118.309c-0,2.798 2.268,5.066 5.066,5.066c0.001,0 0.001,0 0.002,0c2.798,0 5.066,-2.268 5.066,-5.066c0,-5.606 0,-14.588 0,-20.194c0,-2.798 -2.268,-5.066 -5.066,-5.066c-0.001,0 -0.001,0 -0.002,0c-2.798,0 -5.066,2.268 -5.066,5.066c-0,5.606 -0,14.588 -0,20.194Z" style="fill:#ff9500;"/><path d="M28.387,266.409c0,1.793 0.713,3.512 1.98,4.78c1.268,1.268 2.988,1.98 4.78,1.98c0.001,0 0.001,0 0.002,0c1.793,0 3.512,-0.712 4.78,-1.98c1.268,-1.268 1.98,-2.987 1.98,-4.78c-0,-6.56 -0,-16.461 -0,-23.022c-0,-1.792 -0.712,-3.512 -1.98,-4.78c-1.268,-1.267 -2.987,-1.98 -4.78,-1.98c-0.001,0 -0.001,0 -0.002,0c-1.792,0 -3.512,0.713 -4.78,1.98c-1.267,1.268 -1.98,2.988 -1.98,4.78c0,6.561 0,16.462 0,23.022Z" style="fill:#ff9500;"/><path d="M419.06,406.362c-0,2.798 2.268,5.066 5.066,5.066c0.001,-0 0.002,-0 0.003,-0c2.798,-0 5.066,-2.268 5.066,-5.066c-0,-2.334 -0,-5.098 -0,-7.432c-0,-2.798 -2.268,-5.066 -5.066,-5.066c-0.001,-0 -0.002,-0 -0.003,-0c-2.798,-0 -5.066,2.268 -5.066,5.066c0,2.334 0,5.098 0,7.432Z" style="fill:#ff4000;"/><path d="M415.879,223.494c0,7.094 5.751,12.844 12.844,12.844c0.001,0 0.002,0 0.002,0c7.094,0 12.844,-5.75 12.844,-12.844c0,-4.687 0,-9.985 0,-14.672c0,-7.093 -5.75,-12.844 -12.844,-12.844c-0,0 -0.001,0 -0.002,0c-7.093,0 -12.844,5.751 -12.844,12.844c0,4.687 0,9.985 0,14.672Z" style="fill:#ffbf00;"/><path d="M454.75,280.66c0,5.676 4.601,10.276 10.276,10.276l0.002,0c5.675,0 10.276,-4.6 10.276,-10.276l0,-2.056c0,-5.675 -4.601,-10.276 -10.276,-10.276l-0.002,-0c-5.675,-0 -10.276,4.601 -10.276,10.276c0,0.684 0,1.373 0,2.056Z" style="fill:#ffbf00;"/><path d="M137.259,460.886c0,2.332 0.926,4.569 2.575,6.217c1.649,1.649 3.885,2.575 6.217,2.575l0.002,0c4.856,0 8.792,-3.936 8.792,-8.792l0,-26.068c0,-2.332 -0.926,-4.568 -2.575,-6.217c-1.649,-1.649 -3.885,-2.575 -6.217,-2.575l-0.002,-0c-2.332,-0 -4.568,0.926 -6.217,2.575c-1.649,1.649 -2.575,3.885 -2.575,6.217l0,26.068Z" style="fill:#ffbf00;"/><path d="M70.603,270.95c-0,2.885 1.146,5.653 3.186,7.693c2.041,2.04 4.808,3.187 7.694,3.187c0.001,-0 0.002,-0 0.003,-0c2.885,-0 5.653,-1.147 7.693,-3.187c2.041,-2.04 3.187,-4.808 3.187,-7.693c-0,-3.725 -0,-7.892 -0,-11.617c-0,-2.886 -1.146,-5.653 -3.187,-7.693c-2.04,-2.041 -4.808,-3.187 -7.693,-3.187c-0.001,0 -0.002,0 -0.003,0c-2.886,0 -5.653,1.146 -7.694,3.187c-2.04,2.04 -3.186,4.807 -3.186,7.693c-0,3.725 -0,7.892 -0,11.617Z" style="fill:#ffbf00;"/></svg>