<?xml version="1.0" encoding="UTF-8" standalone="no"?><!DOCTYPE svg PUBLIC "-//W3C//DTD SVG 1.1//EN" "http://www.w3.org/Graphics/SVG/1.1/DTD/svg11.dtd"><svg width="100%" height="100%" viewBox="0 0 500 500" version="1.1" xmlns="http://www.w3.org/2000/svg" xmlns:xlink="http://www.w3.org/1999/xlink" xml:space="preserve" xmlns:serif="http://www.serif.com/" style="fill-rule:evenodd;clip-rule:evenodd;stroke-linejoin:round;stroke-miterlimit:2;"><rect id="mask-2" x="0" y="-0" width="500" height="500" style="fill:none;"/><path d="M142.412,198.278c0,-12.099 -9.808,-21.908 -21.908,-21.908c-0,-0 -0.001,-0 -0.002,-0c-12.099,-0 -21.908,9.809 -21.908,21.908c0,18.646 0,45.295 0,63.941c0,12.1 9.809,21.908 21.908,21.908c0.001,0 0.002,0 0.002,0c12.1,0 21.908,-9.808 21.908,-21.908c0,-18.646 0,-45.295 0,-63.941Z" style="fill:#5f96ff;"/><path d="M142.412,368.741c0,-12.099 -9.808,-21.908 -21.908,-21.908c-0,-0 -0.001,-0 -0.002,-0c-12.099,-0 -21.908,9.809 -21.908,21.908c0,4.169 0,8.533 0,12.703c0,12.099 9.809,21.908 21.908,21.908c0.001,-0 0.002,-0 0.002,-0c12.1,-0 21.908,-9.809 21.908,-21.908c0,-4.17 0,-8.534 0,-12.703Z" style="fill:#fa0;"/><path d="M465.201,274.103c0,-12.099 -9.808,-21.908 -21.908,-21.908c-0.001,0 -0.001,0 -0.002,0c-12.099,0 -21.908,9.809 -21.908,21.908c0,18.646 0,45.296 0,63.942c0,12.099 9.809,21.908 21.908,21.908c0.001,-0 0.001,-0 0.002,-0c12.1,-0 21.908,-9.809 21.908,-21.908c0,-18.646 0,-45.296 0,-63.942Z" style="fill:#5f96ff;"/><path d="M221.029,51.582c0,-12.099 -9.808,-21.908 -21.908,-21.908l-0.002,0c-12.099,0 -21.908,9.809 -21.908,21.908l0,156.759c0,12.099 9.809,21.908 21.908,21.908l0.002,-0c12.1,-0 21.908,-9.809 21.908,-21.908l0,-156.759Z" style="fill:#ffd400;"/><path d="M221.029,399.531c0,-5.81 -2.308,-11.383 -6.416,-15.491c-4.109,-4.109 -9.681,-6.417 -15.492,-6.417c-0,0 -0.001,0 -0.002,0c-5.81,0 -11.383,2.308 -15.491,6.417c-4.109,4.108 -6.417,9.681 -6.417,15.491c0,13.552 0,30.886 0,44.438c0,5.81 2.308,11.383 6.417,15.491c4.108,4.109 9.681,6.417 15.491,6.417c0.001,0 0.002,0 0.002,0c5.811,0 11.383,-2.308 15.492,-6.417c4.108,-4.108 6.416,-9.681 6.416,-15.491c0,-13.552 0,-30.886 0,-44.438Z" style="fill:#ffd400;"/><path d="M177.211,159.757c0,-9.608 -7.789,-17.398 -17.398,-17.398c-0.001,0 -0.002,0 -0.003,0c-9.608,0 -17.398,7.79 -17.398,17.398c0,36.426 0,120.346 0,156.771c0,9.609 7.79,17.398 17.398,17.398c0.001,0 0.002,0 0.003,0c9.609,0 17.398,-7.789 17.398,-17.398c0,-36.425 0,-120.345 0,-156.771Z" style="fill:#a0d0fe;"/><path d="M500,147.359c-0,-9.608 -7.789,-17.398 -17.398,-17.398c-0.001,0 -0.002,0 -0.003,0c-9.609,0 -17.398,7.79 -17.398,17.398c0,36.426 0,120.346 0,156.771c0,9.609 7.789,17.398 17.398,17.398c0.001,0 0.002,0 0.003,0c9.609,0 17.398,-7.789 17.398,-17.398c-0,-36.425 -0,-120.345 -0,-156.771Z" style="fill:#ffd400;"/><path d="M255.828,119.527c0,-4.615 -1.833,-9.04 -5.096,-12.303c-3.262,-3.262 -7.688,-5.095 -12.302,-5.095c-0.001,-0 -0.002,-0 -0.003,-0c-4.614,-0 -9.039,1.833 -12.302,5.095c-3.263,3.263 -5.096,7.688 -5.096,12.303c0,34.761 0,112.441 0,147.202c0,4.615 1.833,9.04 5.096,12.303c3.263,3.262 7.688,5.095 12.302,5.095c0.001,0 0.002,0 0.003,0c4.614,0 9.04,-1.833 12.302,-5.095c3.263,-3.263 5.096,-7.688 5.096,-12.303c0,-34.761 0,-112.441 0,-147.202Z" style="fill:#a0d0fe;"/><path d="M299.646,226.983c0,-12.099 -9.808,-21.908 -21.908,-21.908l-0.002,0c-12.099,0 -21.908,9.809 -21.908,21.908l0,111.062c0,12.099 9.809,21.908 21.908,21.908l0.002,-0c12.1,-0 21.908,-9.809 21.908,-21.908l0,-111.062Z" style="fill:#5f96ff;"/><path d="M421.383,197.295c0,-7.869 -6.379,-14.248 -14.248,-14.248c-0.001,0 -0.002,0 -0.004,0c-7.869,0 -14.248,6.379 -14.248,14.248c0,23.677 0,70.855 0,94.531c0,7.869 6.379,14.248 14.248,14.248c0.002,0 0.003,0 0.004,0c7.869,0 14.248,-6.379 14.248,-14.248c0,-23.676 0,-70.854 0,-94.531Z" style="fill:#a0d0fe;"/><path d="M421.383,59.858c0,-7.869 -6.379,-14.248 -14.248,-14.248c-0.001,-0 -0.002,-0 -0.004,-0c-7.869,-0 -14.248,6.379 -14.248,14.248c0,8.573 0,19.449 0,28.023c0,7.869 6.379,14.248 14.248,14.248c0.002,-0 0.003,-0 0.004,-0c7.869,-0 14.248,-6.379 14.248,-14.248c0,-8.574 0,-19.45 0,-28.023Z" style="fill:#ff9500;"/><path d="M71.855,80.143c0,-12.099 -9.808,-21.908 -21.908,-21.908l-0.002,0c-12.099,0 -21.908,9.809 -21.908,21.908l0,74.319c0,12.099 9.809,21.908 21.908,21.908l0.002,-0c12.1,-0 21.908,-9.809 21.908,-21.908l0,-74.319Z" style="fill:#ffd400;"/><path d="M98.594,137.877c0,-7.382 -5.985,-13.368 -13.368,-13.368c-0.001,0 -0.002,0 -0.003,0c-7.383,0 -13.368,5.986 -13.368,13.368c0,21.867 0,65.032 0,86.898c0,7.383 5.985,13.368 13.368,13.368c0.001,-0 0.002,-0 0.003,-0c7.383,-0 13.368,-5.985 13.368,-13.368c0,-21.866 0,-65.031 0,-86.898Z" style="fill:#fa0;"/><path d="M392.883,155.727c0,-7.383 -5.985,-13.368 -13.368,-13.368c-0.001,0 -0.002,0 -0.003,0c-7.382,0 -13.367,5.985 -13.367,13.368c-0,21.867 -0,65.031 -0,86.898c-0,7.383 5.985,13.368 13.367,13.368c0.001,-0 0.002,-0 0.003,-0c7.383,-0 13.368,-5.985 13.368,-13.368c0,-21.867 0,-65.031 0,-86.898Z" style="fill:#ffd400;"/><path d="M386.584,347.294c0,-7.383 -5.985,-13.368 -13.368,-13.368c-0.001,0 -0.002,0 -0.003,0c-7.383,0 -13.368,5.985 -13.368,13.368c0,5.383 0,11.578 0,16.961c0,7.383 5.985,13.368 13.368,13.368c0.001,0 0.002,0 0.003,0c7.383,-0 13.368,-5.985 13.368,-13.368c0,-5.383 0,-11.578 0,-16.961Z" style="fill:#ff9500;"/><path d="M28.037,138.527c0,-7.741 -6.276,-14.018 -14.018,-14.018c-0,0 -0.001,0 -0.001,0c-7.742,0 -14.018,6.277 -14.018,14.018c0,16.496 0,43.723 0,60.218c0,7.742 6.276,14.018 14.018,14.018c0,0 0.001,0 0.001,0c7.742,0 14.018,-6.276 14.018,-14.018c0,-16.495 0,-43.722 0,-60.218Z" style="fill:#a0d0fe;"/><path d="M28.037,280.259c0,-7.742 -6.276,-14.018 -14.018,-14.018c-0,0 -0.001,0 -0.001,0c-7.742,0 -14.018,6.276 -14.018,14.018c0,6.214 0,13.508 0,19.722c0,7.742 6.276,14.018 14.018,14.018c0,-0 0.001,-0 0.001,-0c7.742,-0 14.018,-6.276 14.018,-14.018c0,-6.214 0,-13.508 0,-19.722Z" style="fill:#ff9500;"/><path d="M343.464,155.969c0,-12.1 -9.808,-21.908 -21.908,-21.908l-0.002,-0c-12.099,-0 -21.908,9.808 -21.908,21.908l0,74.318c0,12.1 9.809,21.908 21.908,21.908l0.002,0c12.1,0 21.908,-9.808 21.908,-21.908l0,-74.318Z" style="fill:#5f96ff;"/><path d="M366.145,103.904c-0.001,-6.263 -5.078,-11.34 -11.341,-11.34c0,0 0,0 0,0c-6.263,0 -11.34,5.077 -11.34,11.34c0,23.878 0,79.098 0,102.976c0,6.263 5.077,11.34 11.34,11.34c0,0 0,0 0,0c6.263,0 11.34,-5.077 11.341,-11.34c-0,-23.878 -0,-79.098 -0,-102.976Z" style="fill:#fa0;"/></svg>