<?xml version="1.0" encoding="UTF-8" standalone="no"?><!DOCTYPE svg PUBLIC "-//W3C//DTD SVG 1.1//EN" "http://www.w3.org/Graphics/SVG/1.1/DTD/svg11.dtd"><svg width="100%" height="100%" viewBox="0 0 501 501" version="1.1" xmlns="http://www.w3.org/2000/svg" xmlns:xlink="http://www.w3.org/1999/xlink" xml:space="preserve" xmlns:serif="http://www.serif.com/" style="fill-rule:evenodd;clip-rule:evenodd;stroke-linejoin:round;stroke-miterlimit:2;"><rect id="mask-3" x="0.808" y="0.879" width="500" height="500" style="fill:none;"/><path d="M152.379,300.731c-0,-10.998 -8.915,-19.912 -19.912,-19.912l-0.003,-0c-10.997,-0 -19.912,8.914 -19.912,19.912l0,25.957c0,10.997 8.915,19.912 19.912,19.912l0.003,0c10.997,0 19.912,-8.915 19.912,-19.912l-0,-25.957Z" style="fill:#ffd400;"/><path d="M209.727,139.947c0,-4.549 -1.807,-8.911 -5.023,-12.127c-3.216,-3.216 -7.578,-5.023 -12.127,-5.023c-0.001,-0 -0.001,-0 -0.002,-0c-4.549,-0 -8.911,1.807 -12.127,5.023c-3.216,3.216 -5.023,7.578 -5.023,12.127c-0,19.906 -0,52.542 -0,72.448c-0,4.549 1.807,8.911 5.023,12.127c3.216,3.217 7.578,5.023 12.127,5.023c0.001,0 0.001,0 0.002,0c4.549,0 8.911,-1.806 12.127,-5.023c3.216,-3.216 5.023,-7.578 5.023,-12.127c0,-19.906 0,-52.542 0,-72.448Z" style="fill:#ffbf00;"/><path d="M208.51,452.215c0,-3.726 -1.48,-7.298 -4.114,-9.932c-2.634,-2.634 -6.207,-4.114 -9.932,-4.114l-0.001,-0c-3.725,-0 -7.298,1.48 -9.932,4.114c-2.634,2.634 -4.114,6.206 -4.114,9.932l-0,21.873c-0,3.725 1.48,7.298 4.114,9.932c2.634,2.634 6.207,4.114 9.932,4.114l0.001,-0c3.725,-0 7.298,-1.48 9.932,-4.114c2.634,-2.634 4.114,-6.207 4.114,-9.932l0,-21.873Z" style="fill:#ffbf00;"/><path d="M291.562,371.138c-0,-9.472 -7.679,-17.15 -17.15,-17.15c-0.001,-0 -0.002,-0 -0.003,-0c-9.472,-0 -17.15,7.678 -17.15,17.15c0,5.063 0,10.602 0,15.665c0,9.472 7.678,17.15 17.15,17.15c0.001,-0 0.002,-0 0.003,-0c9.471,0 17.15,-7.678 17.15,-17.15c-0,-5.063 -0,-10.602 -0,-15.665Z" style="fill:#ffd400;"/><path d="M421.787,76.211c0,-3.414 -1.355,-6.687 -3.769,-9.101c-2.414,-2.414 -5.687,-3.769 -9.101,-3.769l-0.003,-0c-3.413,-0 -6.686,1.355 -9.1,3.769c-2.414,2.414 -3.77,5.687 -3.77,9.101l0,79.229c0,3.413 1.356,6.687 3.77,9.1c2.414,2.414 5.687,3.77 9.1,3.77l0.003,-0c3.414,-0 6.687,-1.356 9.101,-3.77c2.414,-2.413 3.769,-5.687 3.769,-9.1l0,-79.229Z" style="fill:#ffbf00;"/><path d="M297.457,33.808c-0,-3.725 -1.48,-7.298 -4.114,-9.932c-2.634,-2.634 -6.207,-4.114 -9.932,-4.114l-0.001,0c-3.725,0 -7.298,1.48 -9.932,4.114c-2.634,2.634 -4.114,6.207 -4.114,9.932l-0,21.873c-0,3.725 1.48,7.298 4.114,9.932c2.634,2.634 6.207,4.114 9.932,4.114l0.001,0c3.725,0 7.298,-1.48 9.932,-4.114c2.634,-2.634 4.114,-6.207 4.114,-9.932l-0,-21.873Z" style="fill:#ff9500;"/><path d="M306.989,181.451c-0,-10.502 -8.514,-19.016 -19.016,-19.016l-0.003,0c-10.502,0 -19.016,8.514 -19.016,19.016l0,11.933c0,10.503 8.514,19.016 19.016,19.016l0.003,0c10.502,0 19.016,-8.513 19.016,-19.016l-0,-11.933Z" style="fill:#ffd400;"/><path d="M486.43,331.241c0,-9.471 -7.678,-17.15 -17.15,-17.15l-0.002,0c-9.472,0 -17.15,7.679 -17.15,17.15l-0,35.294c-0,9.472 7.678,17.15 17.15,17.15l0.002,0c9.472,0 17.15,-7.678 17.15,-17.15l0,-35.294Z" style="fill:#ffd400;"/><path d="M93.171,123.6c0,-3.414 -1.355,-6.687 -3.769,-9.101c-2.414,-2.413 -5.687,-3.769 -9.101,-3.769l-0.003,-0c-3.413,-0 -6.686,1.356 -9.1,3.769c-2.414,2.414 -3.77,5.687 -3.77,9.101l0,13.045c0,3.413 1.356,6.686 3.77,9.1c2.414,2.414 5.687,3.77 9.1,3.77l0.003,-0c3.414,-0 6.687,-1.356 9.101,-3.77c2.414,-2.414 3.769,-5.687 3.769,-9.1l0,-13.045Z" style="fill:#ff9500;"/><path d="M88.731,389.566c-0,-7.195 -5.832,-13.026 -13.026,-13.026c-0.001,-0 -0.003,-0 -0.004,-0c-7.194,-0 -13.026,5.831 -13.026,13.026c0,15.46 0,41.087 0,56.547c0,7.194 5.832,13.026 13.026,13.026c0.001,0 0.003,0 0.004,0c7.194,0 13.026,-5.832 13.026,-13.026c-0,-15.46 -0,-41.087 -0,-56.547Z" style="fill:#ffbf00;"/><path d="M88.731,346.765c-0,-3.454 -1.372,-6.768 -3.815,-9.21c-2.443,-2.443 -5.756,-3.816 -9.211,-3.816l-0.004,0c-3.454,0 -6.768,1.373 -9.211,3.816c-2.442,2.442 -3.815,5.756 -3.815,9.21l0,7.705c0,3.454 1.373,6.767 3.815,9.21c2.443,2.443 5.757,3.816 9.211,3.816l0.004,-0c3.455,-0 6.768,-1.373 9.211,-3.816c2.443,-2.443 3.815,-5.756 3.815,-9.21l-0,-7.705Z" style="fill:#ff9500;"/><path d="M64.015,226.474c0,-5.916 -2.35,-11.59 -6.533,-15.773c-4.183,-4.183 -9.857,-6.533 -15.773,-6.533l-0.002,-0c-5.916,-0 -11.589,2.35 -15.772,6.533c-4.184,4.183 -6.534,9.857 -6.534,15.773l0,40.469c0,5.916 2.35,11.589 6.534,15.773c4.183,4.183 9.856,6.533 15.772,6.533l0.002,-0c5.916,-0 11.59,-2.35 15.773,-6.533c4.183,-4.184 6.533,-9.857 6.533,-15.773l0,-40.469Z" style="fill:#ffd400;"/><path d="M306.989,244.435c-0,-5.043 -2.004,-9.88 -5.57,-13.446c-3.566,-3.566 -8.403,-5.57 -13.446,-5.57l-0.003,0c-5.043,0 -9.88,2.004 -13.446,5.57c-3.566,3.566 -5.57,8.403 -5.57,13.446l0,45.105c0,5.043 2.004,9.88 5.57,13.446c3.566,3.566 8.403,5.57 13.446,5.57l0.003,-0c5.043,-0 9.88,-2.004 13.446,-5.57c3.566,-3.566 5.57,-8.403 5.57,-13.446l-0,-45.105Z" style="fill:#ffd400;"/><path d="M433.145,222.602c0,-2.705 -1.075,-5.3 -2.988,-7.213c-1.913,-1.914 -4.508,-2.989 -7.214,-2.989c0,0 0,0 -0,0c-2.706,0 -5.301,1.075 -7.214,2.989c-1.913,1.913 -2.988,4.508 -2.988,7.213c-0,17.575 -0,53.361 -0,70.935c-0,2.706 1.075,5.301 2.988,7.214c1.913,1.914 4.508,2.988 7.214,2.988c0,0 0,0 0,0c2.706,0 5.301,-1.074 7.214,-2.988c1.913,-1.913 2.988,-4.508 2.988,-7.214c0,-17.574 0,-53.36 0,-70.935Z" style="fill:#ffbf00;"/></svg>